<?xml version="1.0" encoding="utf-8"?>
<!-- Generator: Adobe Illustrator 27.3.1, SVG Export Plug-In . SVG Version: 6.00 Build 0)  -->
<svg version="1.1" id="Layer_1" xmlns="http://www.w3.org/2000/svg" xmlns:xlink="http://www.w3.org/1999/xlink" x="0px" y="0px"
	 viewBox="0 0 800 800" style="enable-background:new 0 0 800 800;" xml:space="preserve">
<style type="text/css">
	.st0{fill:#FFFFFF;}
	.st1{fill:#E5ECF6;}
	.st2{stroke:#FFFFFF;}
	.st3{clip-path:url(#SVGID_00000065050035232784842900000006399495851382954680_);}
	.st4{fill:none;}
	.st5{fill:#2A3F5F;}
	.st6{font-family:'Verdana';}
	.st7{font-size:12px;}
	.st8{enable-background:new    ;}
	.st9{font-size:20px;}
	.st10{fill-opacity:0;}
	.st11{fill:url(#SVGID_00000057862884565565473420000000970410910192186804_);}
	.st12{font-family:'Avenir-Roman';}
	.st13{font-size:30px;}
	.st14{font-size:14px;}
</style>
<rect class="st0" width="800" height="800"/>
<g>
	<rect x="114" y="98.5" class="st1" width="583" height="583"/>
</g>
<g>
	<g>
		<g>
			<g>
				<path class="st2" d="M155.6,98.5v583"/>
				<path class="st2" d="M238.9,98.5v583"/>
				<path class="st2" d="M322.2,98.5v583"/>
				<path class="st2" d="M405.5,98.5v583"/>
				<path class="st2" d="M488.8,98.5v583"/>
				<path class="st2" d="M572.1,98.5v583"/>
				<path class="st2" d="M655.4,98.5v583"/>
			</g>
			<g>
				<path class="st2" d="M114,639.9h583"/>
				<path class="st2" d="M114,556.6h583"/>
				<path class="st2" d="M114,473.3h583"/>
				<path class="st2" d="M114,390h583"/>
				<path class="st2" d="M114,306.7h583"/>
				<path class="st2" d="M114,223.4h583"/>
				<path class="st2" d="M114,140.1h583"/>
			</g>
		</g>
		<path class="st2" d="M0,0"/>
		<path class="st2" d="M0,0"/>
		<g>
			<defs>
				<rect id="SVGID_1_" x="114" y="98.5" width="583" height="583"/>
			</defs>
			<clipPath id="SVGID_00000010279019508875187580000001662787385699467177_">
				<use xlink:href="#SVGID_1_"  style="overflow:visible;"/>
			</clipPath>
			<g transform="translate(114,98.5)" style="clip-path:url(#SVGID_00000010279019508875187580000001662787385699467177_);">
				<g>
					<g>
						<image style="overflow:visible;enable-background:new    ;" width="583" height="583" xlink:href="74FCF29BC68FED35.png" >
						</image>
					</g>
				</g>
			</g>
		</g>
		<path class="st4" d="M0,0"/>
		<path class="st4" d="M0,0"/>
		<g>
			<g>
				<text transform="matrix(1 0 0 1 122.3383 694.5)" class="st5 st6 st7">STP3_1_SI</text>
			</g>
			<g>
				<text transform="matrix(1 0 0 1 209.0853 694.5)" class="st5 st6 st7">STP3A_RI</text>
			</g>
			<g>
				<text transform="matrix(1 0 0 1 285.498 694.5)" class="st5 st6 st7">STP14_4_TI</text>
			</g>
			<g>
				<text transform="matrix(1 0 0 1 368.7881 694.5)" class="st5 st6 st7">STP14_5_TI</text>
			</g>
			<g>
				<text transform="matrix(1 0 0 1 450.7129 694.5)" class="st5 st6 st7">STP19_EE_9</text>
			</g>
			<g>
				<text transform="matrix(1 0 0 1 556.8123 694.5)" class="st5 st6 st7">2018</text>
			</g>
			<g>
				<text transform="matrix(1 0 0 1 624.2994 694.5)" class="st5 st6 st7">GWRPM25</text>
			</g>
		</g>
		<g>
			<g>
				<text transform="matrix(1 0 0 1 8.9062 634.9037)" class="st8"><tspan x="0" y="0" class="st5 st6 st9">GWRPM25</tspan><tspan x="0" y="24" class="st5 st6 st9">PM 2.5</tspan></text>
			</g>
			<g>
				<text transform="matrix(1 0 0 1 54.3398 560.77)" class="st8"><tspan x="0" y="0" class="st5 st6 st9">2018</tspan><tspan x="0" y="24" class="st5 st6 st9">GDP</tspan></text>
			</g>
			<g>
				<text transform="matrix(1 0 0 1 38.1455 456.908)" class="st8"><tspan x="0" y="0" class="st5 st6 st9">STP19_EE_9</tspan><tspan x="0" y="24" class="st5 st6 st9">Count of households that report not receiving </tspan><tspan x="0" y="48" class="st5 st6 st9">electricity billing in Stratum 1-6</tspan></text>
			</g>
			<g>
				<text transform="matrix(1 0 0 1 39.5762 372.1463)" class="st8"><tspan x="0" y="0" class="st5 st6 st9">STP14_5_TI</tspan><tspan x="0" y="24" class="st5 st6 st9">Count of traditional ethnic housing units </tspan><tspan x="0" y="48" class="st5 st6 st9">(Afro-Colombian, Islander, Romani)</tspan></text>
			</g>
			<g>
				<text transform="matrix(1 0 0 1 39.5762 306.7098)" class="st8"><tspan x="0" y="0" class="st5 st6 st9">STP14_4_TI</tspan><tspan x="0" y="24" class="st5 st6 st9">Traditional Indigenous housing units</tspan></text>
			</g>
			<g>
				<text transform="matrix(1 0 0 1 39.5762 208.7482)" class="st8"><tspan x="0" y="0" class="st5 st6 st9">STP3A_RI</tspan><tspan x="0" y="24" class="st5 st6 st9">Number of surveys that reported </tspan><tspan x="0" y="48" class="st5 st6 st9">to be in ethnic territory Indigenous reserve</tspan></text>
			</g>
			<g>
				<text transform="matrix(1 0 0 1 41.3359 125.4435)" class="st8"><tspan x="0" y="0" class="st5 st6 st9">STP3_1_SI</tspan><tspan x="0" y="24" class="st5 st6 st9">Number of surveys that </tspan><tspan x="0" y="48" class="st5 st6 st9">reported to be in ethnic territory</tspan></text>
			</g>
		</g>
	</g>
</g>
<g>
	<g transform="translate(114,60)">
		<rect x="595" class="st10" width="79.5" height="660"/>
		<g transform="translate(0,10)">
			
				<linearGradient id="SVGID_00000083047838454558067330000016887227696659364768_" gradientUnits="userSpaceOnUse" x1="-653.8666" y1="869.7828" x2="-653.8666" y2="870.7828" gradientTransform="matrix(30 0 0 -640 20236 557301)">
				<stop  offset="0" style="stop-color:#0D0887"/>
				<stop  offset="0.1111" style="stop-color:#46039F"/>
				<stop  offset="0.2222" style="stop-color:#7201A8"/>
				<stop  offset="0.3333" style="stop-color:#9C179E"/>
				<stop  offset="0.4444" style="stop-color:#BD3786"/>
				<stop  offset="0.5556" style="stop-color:#D8576B"/>
				<stop  offset="0.6667" style="stop-color:#ED7953"/>
				<stop  offset="0.7778" style="stop-color:#FB9F3A"/>
				<stop  offset="0.8889" style="stop-color:#FDCA26"/>
				<stop  offset="1" style="stop-color:#F0F921"/>
			</linearGradient>
			<rect x="605" style="fill:url(#SVGID_00000083047838454558067330000016887227696659364768_);" width="30" height="640"/>
		</g>
		<g transform="translate(0,10)">
		</g>
		<g transform="translate(0,-60)">
			<g>
				<text transform="matrix(1 0 0 1 637.9 638.55)" class="st5 st6 st7">−0.4</text>
			</g>
			<g>
				<text transform="matrix(1 0 0 1 637.9 557.93)" class="st5 st6 st7">−0.2</text>
			</g>
			<g>
				<text transform="matrix(1 0 0 1 637.9 477.31)" class="st5 st6 st7">0</text>
			</g>
			<g>
				<text transform="matrix(1 0 0 1 637.9 396.68)" class="st5 st6 st7">0.2</text>
			</g>
			<g>
				<text transform="matrix(1 0 0 1 637.9 316.06)" class="st5 st6 st7">0.4</text>
			</g>
			<g>
				<text transform="matrix(1 0 0 1 637.9 235.44)" class="st5 st6 st7">0.6</text>
			</g>
			<g>
				<text transform="matrix(1 0 0 1 637.9 154.82)" class="st5 st6 st7">0.8</text>
			</g>
			<g>
				<text transform="matrix(1 0 0 1 637.9 74.2)" class="st5 st6 st7">1</text>
			</g>
		</g>
		<g transform="translate(-114,-60)">
		</g>
		<rect x="605" y="10" class="st4" width="30" height="640"/>
	</g>
	<g>
		<text transform="matrix(1 0 0 1 293.2014 60.0002)" class="st12 st13">Correlation Map</text>
	</g>
	<g>
		<text transform="matrix(1 0 0 1 373.6411 721.8)" class="st5 st6 st14">Variables</text>
	</g>
</g>
</svg>
