<?xml version="1.0" encoding="utf-8"?>
<!-- Generator: Adobe Illustrator 27.3.1, SVG Export Plug-In . SVG Version: 6.00 Build 0)  -->
<svg version="1.1" id="Layer_1" xmlns="http://www.w3.org/2000/svg" xmlns:xlink="http://www.w3.org/1999/xlink" x="0px" y="0px"
	 viewBox="0 0 900 900" style="enable-background:new 0 0 900 900;" xml:space="preserve">
<style type="text/css">
	.st0{fill:#FFFFFF;}
	.st1{stroke:#FFFFFF;}
	.st2{stroke:#FFFFFF;stroke-width:2;}
	.st3{clip-path:url(#SVGID_00000062171977313162055070000001398848719508783005_);}
	.st4{fill:#636EFA;}
	.st5{fill:#2A3F5F;}
	.st6{font-family:'Avenir-Roman';}
	.st7{font-size:16px;}
	.st8{fill:none;stroke:#4182A4;stroke-width:5;stroke-miterlimit:2;}
	.st9{fill:none;}
	.st10{font-size:12px;}
	.st11{font-size:30px;}
	.st12{font-size:24px;}
</style>
<rect class="st0" width="900" height="900"/>
<g>
	<g>
		<g>
			<g>
				<path class="st1" d="M167.8,60v760"/>
				<path class="st1" d="M236.7,60v760"/>
				<path class="st1" d="M290.2,60v760"/>
				<path class="st1" d="M333.8,60v760"/>
				<path class="st1" d="M370.8,60v760"/>
				<path class="st1" d="M402.8,60v760"/>
				<path class="st1" d="M431,60v760"/>
				<path class="st1" d="M456.2,60v760"/>
				<path class="st1" d="M622.2,60v760"/>
				<path class="st1" d="M719.4,60v760"/>
				<path class="st1" d="M788.3,60v760"/>
			</g>
			<g>
				<path class="st1" d="M80,683.7h740"/>
				<path class="st1" d="M80,572.5h740"/>
				<path class="st1" d="M80,461.3h740"/>
				<path class="st1" d="M80,350.1h740"/>
				<path class="st1" d="M80,238.9h740"/>
				<path class="st1" d="M80,127.7h740"/>
			</g>
		</g>
		<g>
			<path class="st2" d="M80,794.9h740"/>
		</g>
		<path class="st2" d="M0,0"/>
		<path class="st2" d="M0,0"/>
		<g>
			<defs>
				<rect id="SVGID_1_" x="80" y="60" width="740" height="760"/>
			</defs>
			<clipPath id="SVGID_00000044892714080948871200000008857656714413564564_">
				<use xlink:href="#SVGID_1_"  style="overflow:visible;"/>
			</clipPath>
			<g transform="translate(80,60)" style="clip-path:url(#SVGID_00000044892714080948871200000008857656714413564564_);">
				<g>
					<g>
						<g>
							<path class="st4" d="M43.8,446.1c0,1.7-1.3,3-3,3s-3-1.3-3-3s1.3-3,3-3S43.8,444.4,43.8,446.1z"/>
							<path class="st4" d="M72.1,388.3c0,1.7-1.3,3-3,3s-3-1.3-3-3s1.3-3,3-3S72.1,386.7,72.1,388.3z"/>
							<path class="st4" d="M71,337.8c0,1.7-1.3,3-3,3s-3-1.3-3-3s1.3-3,3-3S71,336.1,71,337.8z"/>
							<path class="st4" d="M87.5,319.7c0,1.7-1.3,3-3,3s-3-1.3-3-3s1.3-3,3-3S87.5,318.1,87.5,319.7z"/>
							<path class="st4" d="M121.9,301.7c0,1.7-1.3,3-3,3s-3-1.3-3-3s1.3-3,3-3S121.9,300,121.9,301.7z"/>
							<path class="st4" d="M122.5,297.9c0,1.7-1.3,3-3,3s-3-1.3-3-3s1.3-3,3-3S122.5,296.3,122.5,297.9z"/>
							<path class="st4" d="M123.2,294.2c0,1.7-1.3,3-3,3s-3-1.3-3-3s1.3-3,3-3S123.2,292.5,123.2,294.2z"/>
							<path class="st4" d="M115.3,290.4c0,1.7-1.3,3-3,3s-3-1.3-3-3s1.3-3,3-3S115.3,288.8,115.3,290.4z"/>
							<path class="st4" d="M111.8,286.7c0,1.7-1.3,3-3,3s-3-1.3-3-3s1.3-3,3-3S111.8,285,111.8,286.7z"/>
							<path class="st4" d="M122.3,282.9c0,1.7-1.3,3-3,3s-3-1.3-3-3s1.3-3,3-3S122.3,281.3,122.3,282.9z"/>
							<path class="st4" d="M117.9,279.2c0,1.7-1.3,3-3,3s-3-1.3-3-3s1.3-3,3-3S117.9,277.5,117.9,279.2z"/>
							<path class="st4" d="M129.8,275.4c0,1.7-1.3,3-3,3s-3-1.3-3-3s1.3-3,3-3S129.8,273.8,129.8,275.4z"/>
							<path class="st4" d="M115.2,271.6c0,1.7-1.3,3-3,3s-3-1.3-3-3s1.3-3,3-3S115.2,270,115.2,271.6z"/>
							<path class="st4" d="M119.5,267.9c0,1.7-1.3,3-3,3s-3-1.3-3-3s1.3-3,3-3S119.5,266.2,119.5,267.9z"/>
							<path class="st4" d="M131.4,264.1c0,1.7-1.3,3-3,3c-1.7,0-3-1.3-3-3s1.3-3,3-3C130.1,261.1,131.4,262.5,131.4,264.1z"/>
							<path class="st4" d="M125.8,260.4c0,1.7-1.3,3-3,3s-3-1.3-3-3s1.3-3,3-3S125.8,258.7,125.8,260.4z"/>
							<path class="st4" d="M112.1,256.6c0,1.7-1.3,3-3,3s-3-1.3-3-3s1.3-3,3-3S112.1,255,112.1,256.6z"/>
							<path class="st4" d="M120.9,252.9c0,1.7-1.3,3-3,3s-3-1.3-3-3s1.3-3,3-3S120.9,251.2,120.9,252.9z"/>
							<path class="st4" d="M111.8,249.1c0,1.7-1.3,3-3,3s-3-1.3-3-3s1.3-3,3-3S111.8,247.5,111.8,249.1z"/>
							<path class="st4" d="M132.2,245.4c0,1.7-1.3,3-3,3c-1.7,0-3-1.3-3-3s1.3-3,3-3C130.9,242.4,132.2,243.7,132.2,245.4z"/>
							<path class="st4" d="M115.3,241.6c0,1.7-1.3,3-3,3s-3-1.3-3-3s1.3-3,3-3S115.3,240,115.3,241.6z"/>
							<path class="st4" d="M115.5,237.9c0,1.7-1.3,3-3,3s-3-1.3-3-3s1.3-3,3-3S115.5,236.2,115.5,237.9z"/>
							<path class="st4" d="M111.6,234.1c0,1.7-1.3,3-3,3s-3-1.3-3-3s1.3-3,3-3S111.6,232.5,111.6,234.1z"/>
							<path class="st4" d="M104.2,230.4c0,1.7-1.3,3-3,3s-3-1.3-3-3s1.3-3,3-3S104.2,228.7,104.2,230.4z"/>
							<path class="st4" d="M119.3,226.6c0,1.7-1.3,3-3,3s-3-1.3-3-3s1.3-3,3-3S119.3,224.9,119.3,226.6z"/>
							<path class="st4" d="M119.4,222.8c0,1.7-1.3,3-3,3s-3-1.3-3-3s1.3-3,3-3S119.4,221.2,119.4,222.8z"/>
							<path class="st4" d="M120,219.1c0,1.7-1.3,3-3,3s-3-1.3-3-3s1.3-3,3-3S120,217.4,120,219.1z"/>
							<path class="st4" d="M123.1,215.3c0,1.7-1.3,3-3,3s-3-1.3-3-3s1.3-3,3-3S123.1,213.7,123.1,215.3z"/>
							<path class="st4" d="M132.4,211.6c0,1.7-1.3,3-3,3c-1.7,0-3-1.3-3-3s1.3-3,3-3C131.1,208.6,132.4,209.9,132.4,211.6z"/>
							<path class="st4" d="M134.4,207.8c0,1.7-1.3,3-3,3s-3-1.3-3-3s1.3-3,3-3S134.4,206.2,134.4,207.8z"/>
							<path class="st4" d="M118.1,204.1c0,1.7-1.3,3-3,3s-3-1.3-3-3s1.3-3,3-3S118.1,202.4,118.1,204.1z"/>
							<path class="st4" d="M132.9,200.3c0,1.7-1.3,3-3,3s-3-1.3-3-3s1.3-3,3-3S132.9,198.7,132.9,200.3z"/>
							<path class="st4" d="M130.2,196.6c0,1.7-1.3,3-3,3s-3-1.3-3-3s1.3-3,3-3S130.2,194.9,130.2,196.6z"/>
							<path class="st4" d="M129,192.8c0,1.7-1.3,3-3,3s-3-1.3-3-3s1.3-3,3-3S129,191.2,129,192.8z"/>
							<path class="st4" d="M136.4,189.1c0,1.7-1.3,3-3,3s-3-1.3-3-3s1.3-3,3-3S136.4,187.4,136.4,189.1z"/>
							<path class="st4" d="M136.1,185.3c0,1.7-1.3,3-3,3s-3-1.3-3-3s1.3-3,3-3S136.1,183.6,136.1,185.3z"/>
							<path class="st4" d="M140.5,181.5c0,1.7-1.3,3-3,3s-3-1.3-3-3s1.3-3,3-3S140.5,179.9,140.5,181.5z"/>
							<path class="st4" d="M139.7,177.8c0,1.7-1.3,3-3,3s-3-1.3-3-3s1.3-3,3-3S139.7,176.1,139.7,177.8z"/>
							<path class="st4" d="M142.3,174c0,1.7-1.3,3-3,3s-3-1.3-3-3s1.3-3,3-3S142.3,172.4,142.3,174z"/>
							<path class="st4" d="M156.5,170.3c0,1.7-1.3,3-3,3s-3-1.3-3-3s1.3-3,3-3S156.5,168.6,156.5,170.3z"/>
							<path class="st4" d="M161.2,166.5c0,1.7-1.3,3-3,3s-3-1.3-3-3s1.3-3,3-3S161.2,164.9,161.2,166.5z"/>
							<path class="st4" d="M156.2,162.8c0,1.7-1.3,3-3,3s-3-1.3-3-3s1.3-3,3-3S156.2,161.1,156.2,162.8z"/>
							<path class="st4" d="M162.7,159c0,1.7-1.3,3-3,3s-3-1.3-3-3s1.3-3,3-3S162.7,157.4,162.7,159z"/>
							<path class="st4" d="M157.8,155.3c0,1.7-1.3,3-3,3s-3-1.3-3-3s1.3-3,3-3S157.8,153.6,157.8,155.3z"/>
							<path class="st4" d="M166.1,151.5c0,1.7-1.3,3-3,3s-3-1.3-3-3s1.3-3,3-3S166.1,149.8,166.1,151.5z"/>
							<path class="st4" d="M158.5,147.8c0,1.7-1.3,3-3,3s-3-1.3-3-3s1.3-3,3-3S158.5,146.1,158.5,147.8z"/>
							<path class="st4" d="M153.2,144c0,1.7-1.3,3-3,3s-3-1.3-3-3s1.3-3,3-3S153.2,142.3,153.2,144z"/>
							<path class="st4" d="M161.9,140.2c0,1.7-1.3,3-3,3s-3-1.3-3-3s1.3-3,3-3S161.9,138.6,161.9,140.2z"/>
							<path class="st4" d="M179.2,136.5c0,1.7-1.3,3-3,3s-3-1.3-3-3s1.3-3,3-3S179.2,134.8,179.2,136.5z"/>
							<path class="st4" d="M187.1,132.7c0,1.7-1.3,3-3,3s-3-1.3-3-3s1.3-3,3-3S187.1,131.1,187.1,132.7z"/>
							<path class="st4" d="M184.2,129c0,1.7-1.3,3-3,3s-3-1.3-3-3c0-1.7,1.3-3,3-3S184.2,127.3,184.2,129z"/>
							<path class="st4" d="M178.6,125.2c0,1.7-1.3,3-3,3s-3-1.3-3-3s1.3-3,3-3S178.6,123.6,178.6,125.2z"/>
							<path class="st4" d="M185.6,121.5c0,1.7-1.3,3-3,3s-3-1.3-3-3s1.3-3,3-3S185.6,119.8,185.6,121.5z"/>
							<path class="st4" d="M189,117.7c0,1.7-1.3,3-3,3s-3-1.3-3-3s1.3-3,3-3S189,116.1,189,117.7z"/>
							<path class="st4" d="M147.2,114c0,1.7-1.3,3-3,3s-3-1.3-3-3s1.3-3,3-3S147.2,112.3,147.2,114z"/>
							<path class="st4" d="M159.3,112.8c0,1.7-1.3,3-3,3s-3-1.3-3-3s1.3-3,3-3S159.3,111.1,159.3,112.8z"/>
							<path class="st4" d="M162.2,111.7c0,1.7-1.3,3-3,3s-3-1.3-3-3s1.3-3,3-3S162.2,110,162.2,111.7z"/>
							<path class="st4" d="M169.3,110.5c0,1.7-1.3,3-3,3s-3-1.3-3-3s1.3-3,3-3S169.3,108.8,169.3,110.5z"/>
							<path class="st4" d="M173.7,109.3c0,1.7-1.3,3-3,3s-3-1.3-3-3s1.3-3,3-3S173.7,107.7,173.7,109.3z"/>
							<path class="st4" d="M170.7,108.2c0,1.7-1.3,3-3,3s-3-1.3-3-3s1.3-3,3-3S170.7,106.5,170.7,108.2z"/>
							<path class="st4" d="M185.1,107c0,1.7-1.3,3-3,3s-3-1.3-3-3s1.3-3,3-3S185.1,105.4,185.1,107z"/>
							<path class="st4" d="M187.5,105.9c0,1.7-1.3,3-3,3s-3-1.3-3-3s1.3-3,3-3S187.5,104.2,187.5,105.9z"/>
							<path class="st4" d="M186.2,104.7c0,1.7-1.3,3-3,3s-3-1.3-3-3s1.3-3,3-3S186.2,103.1,186.2,104.7z"/>
							<path class="st4" d="M190.4,103.6c0,1.7-1.3,3-3,3s-3-1.3-3-3s1.3-3,3-3S190.4,101.9,190.4,103.6z"/>
							<path class="st4" d="M193.8,102.4c0,1.7-1.3,3-3,3s-3-1.3-3-3s1.3-3,3-3S193.8,100.7,193.8,102.4z"/>
							<path class="st4" d="M198.3,101.2c0,1.7-1.3,3-3,3s-3-1.3-3-3s1.3-3,3-3S198.3,99.6,198.3,101.2z"/>
							<path class="st4" d="M198,100.1c0,1.7-1.3,3-3,3s-3-1.3-3-3s1.3-3,3-3S198,98.4,198,100.1z"/>
							<path class="st4" d="M198,98.9c0,1.7-1.3,3-3,3s-3-1.3-3-3s1.3-3,3-3S198,97.3,198,98.9z"/>
							<path class="st4" d="M202.5,97.8c0,1.7-1.3,3-3,3s-3-1.3-3-3s1.3-3,3-3S202.5,96.1,202.5,97.8z"/>
							<path class="st4" d="M207.8,96.6c0,1.7-1.3,3-3,3s-3-1.3-3-3s1.3-3,3-3S207.8,95,207.8,96.6z"/>
							<path class="st4" d="M209.6,95.5c0,1.7-1.3,3-3,3s-3-1.3-3-3s1.3-3,3-3S209.6,93.8,209.6,95.5z"/>
							<path class="st4" d="M205.2,94.3c0,1.7-1.3,3-3,3s-3-1.3-3-3s1.3-3,3-3S205.2,92.7,205.2,94.3z"/>
							<path class="st4" d="M210.6,93.2c0,1.7-1.3,3-3,3s-3-1.3-3-3s1.3-3,3-3S210.6,91.5,210.6,93.2z"/>
							<path class="st4" d="M210.2,92c0,1.7-1.3,3-3,3s-3-1.3-3-3s1.3-3,3-3S210.2,90.4,210.2,92z"/>
							<path class="st4" d="M222.5,90.8c0,1.7-1.3,3-3,3s-3-1.3-3-3s1.3-3,3-3S222.5,89.2,222.5,90.8z"/>
							<path class="st4" d="M232.9,89.7c0,1.7-1.3,3-3,3s-3-1.3-3-3s1.3-3,3-3S232.9,88,232.9,89.7z"/>
							<path class="st4" d="M231.9,88.5c0,1.7-1.3,3-3,3s-3-1.3-3-3s1.3-3,3-3S231.9,86.9,231.9,88.5z"/>
							<path class="st4" d="M235.2,87.4c0,1.7-1.3,3-3,3s-3-1.3-3-3s1.3-3,3-3S235.2,85.7,235.2,87.4z"/>
							<path class="st4" d="M236.8,86.2c0,1.7-1.3,3-3,3s-3-1.3-3-3s1.3-3,3-3S236.8,84.6,236.8,86.2z"/>
							<path class="st4" d="M240.1,85.1c0,1.7-1.3,3-3,3s-3-1.3-3-3s1.3-3,3-3S240.1,83.4,240.1,85.1z"/>
							<path class="st4" d="M239.8,82.4c0,1.7-1.3,3-3,3s-3-1.3-3-3s1.3-3,3-3S239.8,80.7,239.8,82.4z"/>
							<path class="st4" d="M239.5,79.7c0,1.7-1.3,3-3,3s-3-1.3-3-3s1.3-3,3-3S239.5,78,239.5,79.7z"/>
							<path class="st4" d="M237.9,76.9c0,1.7-1.3,3-3,3s-3-1.3-3-3s1.3-3,3-3S237.9,75.3,237.9,76.9z"/>
							<path class="st4" d="M234.3,74.2c0,1.7-1.3,3-3,3s-3-1.3-3-3s1.3-3,3-3S234.3,72.6,234.3,74.2z"/>
							<path class="st4" d="M243.1,71.5c0,1.7-1.3,3-3,3s-3-1.3-3-3s1.3-3,3-3S243.1,69.9,243.1,71.5z"/>
							<path class="st4" d="M249.3,68.8c0,1.7-1.3,3-3,3s-3-1.3-3-3s1.3-3,3-3S249.3,67.2,249.3,68.8z"/>
							<path class="st4" d="M254.2,66.1c0,1.7-1.3,3-3,3s-3-1.3-3-3s1.3-3,3-3S254.2,64.5,254.2,66.1z"/>
							<path class="st4" d="M254.3,63.4c0,1.7-1.3,3-3,3s-3-1.3-3-3c0-1.7,1.3-3,3-3S254.3,61.8,254.3,63.4z"/>
							<path class="st4" d="M252.8,60.7c0,1.7-1.3,3-3,3s-3-1.3-3-3s1.3-3,3-3S252.8,59,252.8,60.7z"/>
							<path class="st4" d="M249.6,58c0,1.7-1.3,3-3,3s-3-1.3-3-3s1.3-3,3-3S249.6,56.3,249.6,58z"/>
							<path class="st4" d="M251.4,55.3c0,1.7-1.3,3-3,3s-3-1.3-3-3s1.3-3,3-3S251.4,53.6,251.4,55.3z"/>
							<path class="st4" d="M258.8,52.6c0,1.7-1.3,3-3,3s-3-1.3-3-3s1.3-3,3-3S258.8,50.9,258.8,52.6z"/>
							<path class="st4" d="M267.4,49.9c0,1.7-1.3,3-3,3s-3-1.3-3-3s1.3-3,3-3S267.4,48.2,267.4,49.9z"/>
							<path class="st4" d="M278.1,47.2c0,1.7-1.3,3-3,3s-3-1.3-3-3s1.3-3,3-3S278.1,45.5,278.1,47.2z"/>
							<path class="st4" d="M277.2,44.5c0,1.7-1.3,3-3,3s-3-1.3-3-3s1.3-3,3-3S277.2,42.8,277.2,44.5z"/>
							<path class="st4" d="M275.1,41.8c0,1.7-1.3,3-3,3s-3-1.3-3-3s1.3-3,3-3S275.1,40.1,275.1,41.8z"/>
							<path class="st4" d="M267.2,48.2c0,1.7-1.3,3-3,3s-3-1.3-3-3s1.3-3,3-3S267.2,46.5,267.2,48.2z"/>
							<path class="st4" d="M265,54.6c0,1.7-1.3,3-3,3s-3-1.3-3-3s1.3-3,3-3S265,52.9,265,54.6z"/>
							<path class="st4" d="M278.4,61c0,1.7-1.3,3-3,3s-3-1.3-3-3s1.3-3,3-3S278.4,59.3,278.4,61z"/>
							<path class="st4" d="M283.6,67.4c0,1.7-1.3,3-3,3s-3-1.3-3-3s1.3-3,3-3S283.6,65.8,283.6,67.4z"/>
							<path class="st4" d="M291.1,73.8c0,1.7-1.3,3-3,3s-3-1.3-3-3s1.3-3,3-3S291.1,72.2,291.1,73.8z"/>
							<path class="st4" d="M291.9,80.3c0,1.7-1.3,3-3,3s-3-1.3-3-3s1.3-3,3-3S291.9,78.6,291.9,80.3z"/>
							<path class="st4" d="M301,86.7c0,1.7-1.3,3-3,3s-3-1.3-3-3s1.3-3,3-3S301,85,301,86.7z"/>
							<path class="st4" d="M308.4,93.1c0,1.7-1.3,3-3,3s-3-1.3-3-3s1.3-3,3-3S308.4,91.4,308.4,93.1z"/>
							<path class="st4" d="M304.4,99.5c0,1.7-1.3,3-3,3s-3-1.3-3-3s1.3-3,3-3S304.4,97.9,304.4,99.5z"/>
							<path class="st4" d="M302.2,99.9c0,1.7-1.3,3-3,3s-3-1.3-3-3s1.3-3,3-3S302.2,98.2,302.2,99.9z"/>
							<path class="st4" d="M306.2,100.2c0,1.7-1.3,3-3,3s-3-1.3-3-3s1.3-3,3-3S306.2,98.6,306.2,100.2z"/>
							<path class="st4" d="M301.6,100.6c0,1.7-1.3,3-3,3s-3-1.3-3-3s1.3-3,3-3S301.6,98.9,301.6,100.6z"/>
							<path class="st4" d="M301,100.9c0,1.7-1.3,3-3,3s-3-1.3-3-3s1.3-3,3-3S301,99.2,301,100.9z"/>
							<path class="st4" d="M305.9,101.2c0,1.7-1.3,3-3,3s-3-1.3-3-3s1.3-3,3-3S305.9,99.6,305.9,101.2z"/>
							<path class="st4" d="M311.7,101.6c0,1.7-1.3,3-3,3s-3-1.3-3-3s1.3-3,3-3S311.7,99.9,311.7,101.6z"/>
							<path class="st4" d="M314.2,101.9c0,1.7-1.3,3-3,3s-3-1.3-3-3s1.3-3,3-3S314.2,100.3,314.2,101.9z"/>
							<path class="st4" d="M302.1,102.3c0,1.7-1.3,3-3,3s-3-1.3-3-3s1.3-3,3-3S302.1,100.6,302.1,102.3z"/>
							<path class="st4" d="M305.4,102.6c0,1.7-1.3,3-3,3s-3-1.3-3-3s1.3-3,3-3S305.4,101,305.4,102.6z"/>
							<path class="st4" d="M310.7,103c0,1.7-1.3,3-3,3s-3-1.3-3-3s1.3-3,3-3S310.7,101.3,310.7,103z"/>
							<path class="st4" d="M315.7,103.3c0,1.7-1.3,3-3,3s-3-1.3-3-3s1.3-3,3-3S315.7,101.7,315.7,103.3z"/>
							<path class="st4" d="M318.4,103.7c0,1.7-1.3,3-3,3s-3-1.3-3-3s1.3-3,3-3S318.4,102,318.4,103.7z"/>
							<path class="st4" d="M326.3,108.2c0,1.7-1.3,3-3,3s-3-1.3-3-3s1.3-3,3-3S326.3,106.5,326.3,108.2z"/>
							<path class="st4" d="M326.5,117.4c0,1.7-1.3,3-3,3s-3-1.3-3-3s1.3-3,3-3S326.5,115.7,326.5,117.4z"/>
							<path class="st4" d="M343.5,126.6c0,1.7-1.3,3-3,3s-3-1.3-3-3c0-1.7,1.3-3,3-3S343.5,124.9,343.5,126.6z"/>
							<path class="st4" d="M347.8,135.8c0,1.7-1.3,3-3,3s-3-1.3-3-3s1.3-3,3-3S347.8,134.1,347.8,135.8z"/>
							<path class="st4" d="M349.5,144.9c0,1.7-1.3,3-3,3s-3-1.3-3-3s1.3-3,3-3S349.5,143.3,349.5,144.9z"/>
							<path class="st4" d="M351.1,154.1c0,1.7-1.3,3-3,3s-3-1.3-3-3s1.3-3,3-3S351.1,152.5,351.1,154.1z"/>
							<path class="st4" d="M323.8,163.3c0,1.7-1.3,3-3,3s-3-1.3-3-3s1.3-3,3-3S323.8,161.7,323.8,163.3z"/>
							<path class="st4" d="M307.4,172.5c0,1.7-1.3,3-3,3s-3-1.3-3-3s1.3-3,3-3S307.4,170.9,307.4,172.5z"/>
							<path class="st4" d="M301.6,181.7c0,1.7-1.3,3-3,3s-3-1.3-3-3s1.3-3,3-3S301.6,180,301.6,181.7z"/>
							<path class="st4" d="M312,190.9c0,1.7-1.3,3-3,3s-3-1.3-3-3s1.3-3,3-3S312,189.2,312,190.9z"/>
							<path class="st4" d="M318.3,200.1c0,1.7-1.3,3-3,3s-3-1.3-3-3s1.3-3,3-3S318.3,198.4,318.3,200.1z"/>
							<path class="st4" d="M326.3,209.3c0,1.7-1.3,3-3,3s-3-1.3-3-3s1.3-3,3-3S326.3,207.6,326.3,209.3z"/>
							<path class="st4" d="M336.9,280c0,1.7-1.3,3-3,3s-3-1.3-3-3s1.3-3,3-3S336.9,278.4,336.9,280z"/>
							<path class="st4" d="M327,330.6c0,1.7-1.3,3-3,3s-3-1.3-3-3s1.3-3,3-3S327,328.9,327,330.6z"/>
							<path class="st4" d="M344.7,334.6c0,1.7-1.3,3-3,3s-3-1.3-3-3s1.3-3,3-3S344.7,333,344.7,334.6z"/>
							<path class="st4" d="M346.6,336.6c0,1.7-1.3,3-3,3s-3-1.3-3-3s1.3-3,3-3S346.6,335,346.6,336.6z"/>
							<path class="st4" d="M353.1,334.6c0,1.7-1.3,3-3,3s-3-1.3-3-3s1.3-3,3-3S353.1,333,353.1,334.6z"/>
							<path class="st4" d="M350.3,332.6c0,1.7-1.3,3-3,3s-3-1.3-3-3s1.3-3,3-3S350.3,330.9,350.3,332.6z"/>
							<path class="st4" d="M336.6,330.6c0,1.7-1.3,3-3,3s-3-1.3-3-3s1.3-3,3-3S336.6,328.9,336.6,330.6z"/>
							<path class="st4" d="M337.1,310.4c0,1.7-1.3,3-3,3s-3-1.3-3-3s1.3-3,3-3S337.1,308.7,337.1,310.4z"/>
							<path class="st4" d="M343,290.1c0,1.7-1.3,3-3,3s-3-1.3-3-3s1.3-3,3-3S343,288.5,343,290.1z"/>
							<path class="st4" d="M357.6,286.1c0,1.7-1.3,3-3,3s-3-1.3-3-3s1.3-3,3-3S357.6,284.4,357.6,286.1z"/>
							<path class="st4" d="M365.6,280c0,1.7-1.3,3-3,3s-3-1.3-3-3s1.3-3,3-3S365.6,278.4,365.6,280z"/>
							<path class="st4" d="M375.2,284.1c0,1.7-1.3,3-3,3s-3-1.3-3-3s1.3-3,3-3S375.2,282.4,375.2,284.1z"/>
							<path class="st4" d="M382.3,288.1c0,1.7-1.3,3-3,3s-3-1.3-3-3s1.3-3,3-3S382.3,286.5,382.3,288.1z"/>
							<path class="st4" d="M384.2,290.1c0,1.7-1.3,3-3,3s-3-1.3-3-3s1.3-3,3-3S384.2,288.5,384.2,290.1z"/>
							<path class="st4" d="M384,307.8c0,1.7-1.3,3-3,3s-3-1.3-3-3s1.3-3,3-3S384,306.2,384,307.8z"/>
							<path class="st4" d="M405.7,325.5c0,1.7-1.3,3-3,3s-3-1.3-3-3s1.3-3,3-3S405.7,323.9,405.7,325.5z"/>
							<path class="st4" d="M426.6,343.2c0,1.7-1.3,3-3,3s-3-1.3-3-3s1.3-3,3-3S426.6,341.6,426.6,343.2z"/>
							<path class="st4" d="M431.6,360.9c0,1.7-1.3,3-3,3s-3-1.3-3-3s1.3-3,3-3S431.6,359.2,431.6,360.9z"/>
							<path class="st4" d="M434.9,378.6c0,1.7-1.3,3-3,3s-3-1.3-3-3s1.3-3,3-3S434.9,376.9,434.9,378.6z"/>
							<path class="st4" d="M424.2,396.3c0,1.7-1.3,3-3,3s-3-1.3-3-3s1.3-3,3-3S424.2,394.6,424.2,396.3z"/>
							<path class="st4" d="M412.6,414c0,1.7-1.3,3-3,3s-3-1.3-3-3s1.3-3,3-3S412.6,412.3,412.6,414z"/>
							<path class="st4" d="M401.8,431.7c0,1.7-1.3,3-3,3s-3-1.3-3-3s1.3-3,3-3S401.8,430,401.8,431.7z"/>
							<path class="st4" d="M396.8,449.4c0,1.7-1.3,3-3,3s-3-1.3-3-3s1.3-3,3-3S396.8,447.7,396.8,449.4z"/>
							<path class="st4" d="M401.8,467c0,1.7-1.3,3-3,3s-3-1.3-3-3s1.3-3,3-3S401.8,465.4,401.8,467z"/>
							<path class="st4" d="M409.2,484.7c0,1.7-1.3,3-3,3s-3-1.3-3-3s1.3-3,3-3S409.2,483.1,409.2,484.7z"/>
							<path class="st4" d="M408.6,502.4c0,1.7-1.3,3-3,3s-3-1.3-3-3s1.3-3,3-3S408.6,500.8,408.6,502.4z"/>
							<path class="st4" d="M414.9,507.1c0,1.7-1.3,3-3,3s-3-1.3-3-3s1.3-3,3-3S414.9,505.5,414.9,507.1z"/>
							<path class="st4" d="M413.8,511.8c0,1.7-1.3,3-3,3s-3-1.3-3-3c0-1.7,1.3-3,3-3S413.8,510.2,413.8,511.8z"/>
							<path class="st4" d="M422.2,516.5c0,1.7-1.3,3-3,3s-3-1.3-3-3s1.3-3,3-3S422.2,514.9,422.2,516.5z"/>
							<path class="st4" d="M431,521.3c0,1.7-1.3,3-3,3s-3-1.3-3-3s1.3-3,3-3S431,519.6,431,521.3z"/>
							<path class="st4" d="M438.7,526c0,1.7-1.3,3-3,3s-3-1.3-3-3s1.3-3,3-3S438.7,524.3,438.7,526z"/>
							<path class="st4" d="M440.5,530.7c0,1.7-1.3,3-3,3s-3-1.3-3-3s1.3-3,3-3S440.5,529,440.5,530.7z"/>
							<path class="st4" d="M443.2,535.4c0,1.7-1.3,3-3,3s-3-1.3-3-3s1.3-3,3-3S443.2,533.7,443.2,535.4z"/>
							<path class="st4" d="M441.7,540.1c0,1.7-1.3,3-3,3s-3-1.3-3-3s1.3-3,3-3S441.7,538.4,441.7,540.1z"/>
							<path class="st4" d="M449.8,544.8c0,1.7-1.3,3-3,3s-3-1.3-3-3s1.3-3,3-3S449.8,543.2,449.8,544.8z"/>
							<path class="st4" d="M461.3,549.5c0,1.7-1.3,3-3,3s-3-1.3-3-3s1.3-3,3-3S461.3,547.9,461.3,549.5z"/>
							<path class="st4" d="M467,554.2c0,1.7-1.3,3-3,3s-3-1.3-3-3s1.3-3,3-3S467,552.6,467,554.2z"/>
							<path class="st4" d="M467.3,558.9c0,1.7-1.3,3-3,3s-3-1.3-3-3s1.3-3,3-3S467.3,557.3,467.3,558.9z"/>
							<path class="st4" d="M474.8,563.6c0,1.7-1.3,3-3,3s-3-1.3-3-3s1.3-3,3-3S474.8,562,474.8,563.6z"/>
							<path class="st4" d="M485.6,568.3c0,1.7-1.3,3-3,3s-3-1.3-3-3s1.3-3,3-3S485.6,566.7,485.6,568.3z"/>
							<path class="st4" d="M490.1,573.1c0,1.7-1.3,3-3,3s-3-1.3-3-3s1.3-3,3-3S490.1,571.4,490.1,573.1z"/>
							<path class="st4" d="M493.4,577.8c0,1.7-1.3,3-3,3s-3-1.3-3-3s1.3-3,3-3S493.4,576.1,493.4,577.8z"/>
							<path class="st4" d="M497.3,582.5c0,1.7-1.3,3-3,3s-3-1.3-3-3s1.3-3,3-3S497.3,580.8,497.3,582.5z"/>
							<path class="st4" d="M505.8,587.2c0,1.7-1.3,3-3,3s-3-1.3-3-3s1.3-3,3-3S505.8,585.5,505.8,587.2z"/>
							<path class="st4" d="M509,591.9c0,1.7-1.3,3-3,3s-3-1.3-3-3s1.3-3,3-3S509,590.2,509,591.9z"/>
							<path class="st4" d="M513.8,596.6c0,1.7-1.3,3-3,3c-1.7,0-3-1.3-3-3s1.3-3,3-3C512.5,593.6,513.8,594.9,513.8,596.6z"/>
							<path class="st4" d="M517.7,601.3c0,1.7-1.3,3-3,3s-3-1.3-3-3s1.3-3,3-3S517.7,599.7,517.7,601.3z"/>
							<path class="st4" d="M525.3,606c0,1.7-1.3,3-3,3s-3-1.3-3-3s1.3-3,3-3S525.3,604.4,525.3,606z"/>
							<path class="st4" d="M540.3,610.7c0,1.7-1.3,3-3,3s-3-1.3-3-3s1.3-3,3-3S540.3,609.1,540.3,610.7z"/>
							<path class="st4" d="M537,615.4c0,1.7-1.3,3-3,3s-3-1.3-3-3s1.3-3,3-3S537,613.8,537,615.4z"/>
							<path class="st4" d="M536.7,620.2c0,1.7-1.3,3-3,3s-3-1.3-3-3s1.3-3,3-3S536.7,618.5,536.7,620.2z"/>
							<path class="st4" d="M542.1,624.9c0,1.7-1.3,3-3,3s-3-1.3-3-3s1.3-3,3-3S542.1,623.2,542.1,624.9z"/>
							<path class="st4" d="M547.3,629.6c0,1.7-1.3,3-3,3s-3-1.3-3-3s1.3-3,3-3S547.3,627.9,547.3,629.6z"/>
							<path class="st4" d="M555.8,634.3c0,1.7-1.3,3-3,3s-3-1.3-3-3s1.3-3,3-3S555.8,632.6,555.8,634.3z"/>
							<path class="st4" d="M562,639c0,1.7-1.3,3-3,3s-3-1.3-3-3s1.3-3,3-3S562,637.3,562,639z"/>
							<path class="st4" d="M557.7,643.7c0,1.7-1.3,3-3,3s-3-1.3-3-3s1.3-3,3-3S557.7,642,557.7,643.7z"/>
							<path class="st4" d="M554.3,648.4c0,1.7-1.3,3-3,3s-3-1.3-3-3s1.3-3,3-3S554.3,646.7,554.3,648.4z"/>
							<path class="st4" d="M558.2,653.1c0,1.7-1.3,3-3,3s-3-1.3-3-3s1.3-3,3-3S558.2,651.5,558.2,653.1z"/>
							<path class="st4" d="M566.3,657.8c0,1.7-1.3,3-3,3s-3-1.3-3-3s1.3-3,3-3S566.3,656.2,566.3,657.8z"/>
							<path class="st4" d="M571.9,662.5c0,1.7-1.3,3-3,3s-3-1.3-3-3s1.3-3,3-3S571.9,660.9,571.9,662.5z"/>
							<path class="st4" d="M579.5,667.2c0,1.7-1.3,3-3,3s-3-1.3-3-3s1.3-3,3-3S579.5,665.6,579.5,667.2z"/>
							<path class="st4" d="M589.1,671.9c0,1.7-1.3,3-3,3s-3-1.3-3-3s1.3-3,3-3S589.1,670.3,589.1,671.9z"/>
							<path class="st4" d="M599.5,676.7c0,1.7-1.3,3-3,3s-3-1.3-3-3s1.3-3,3-3S599.5,675,599.5,676.7z"/>
							<path class="st4" d="M610.4,681.4c0,1.7-1.3,3-3,3s-3-1.3-3-3s1.3-3,3-3S610.4,679.7,610.4,681.4z"/>
							<path class="st4" d="M614.8,686.1c0,1.7-1.3,3-3,3s-3-1.3-3-3s1.3-3,3-3S614.8,684.4,614.8,686.1z"/>
							<path class="st4" d="M615.1,690.8c0,1.7-1.3,3-3,3s-3-1.3-3-3s1.3-3,3-3S615.1,689.1,615.1,690.8z"/>
							<path class="st4" d="M611.6,695.5c0,1.7-1.3,3-3,3s-3-1.3-3-3s1.3-3,3-3S611.6,693.8,611.6,695.5z"/>
							<path class="st4" d="M611.8,700.2c0,1.7-1.3,3-3,3s-3-1.3-3-3s1.3-3,3-3S611.8,698.5,611.8,700.2z"/>
							<path class="st4" d="M617.2,704.9c0,1.7-1.3,3-3,3s-3-1.3-3-3s1.3-3,3-3S617.2,703.3,617.2,704.9z"/>
							<path class="st4" d="M625.7,706c0,1.7-1.3,3-3,3s-3-1.3-3-3s1.3-3,3-3S625.7,704.4,625.7,706z"/>
							<path class="st4" d="M631,706c0,1.7-1.3,3-3,3s-3-1.3-3-3s1.3-3,3-3S631,704.4,631,706z"/>
							<path class="st4" d="M636.5,706c0,1.7-1.3,3-3,3s-3-1.3-3-3s1.3-3,3-3S636.5,704.4,636.5,706z"/>
							<path class="st4" d="M643.2,707.1c0,1.7-1.3,3-3,3s-3-1.3-3-3s1.3-3,3-3S643.2,705.5,643.2,707.1z"/>
							<path class="st4" d="M650,707.1c0,1.7-1.3,3-3,3s-3-1.3-3-3s1.3-3,3-3S650,705.5,650,707.1z"/>
							<path class="st4" d="M657,707.1c0,1.7-1.3,3-3,3s-3-1.3-3-3s1.3-3,3-3S657,705.5,657,707.1z"/>
							<path class="st4" d="M664.9,707.1c0,1.7-1.3,3-3,3s-3-1.3-3-3s1.3-3,3-3S664.9,705.5,664.9,707.1z"/>
							<path class="st4" d="M670.4,709.1c0,1.7-1.3,3-3,3s-3-1.3-3-3s1.3-3,3-3S670.4,707.5,670.4,709.1z"/>
							<path class="st4" d="M675.1,709.3c0,1.7-1.3,3-3,3s-3-1.3-3-3s1.3-3,3-3S675.1,707.7,675.1,709.3z"/>
							<path class="st4" d="M682.2,707.4c0,1.7-1.3,3-3,3s-3-1.3-3-3s1.3-3,3-3S682.2,705.7,682.2,707.4z"/>
							<path class="st4" d="M686.8,710.4c0,1.7-1.3,3-3,3s-3-1.3-3-3s1.3-3,3-3S686.8,708.8,686.8,710.4z"/>
							<path class="st4" d="M692.1,710.1c0,1.7-1.3,3-3,3s-3-1.3-3-3s1.3-3,3-3S692.1,708.4,692.1,710.1z"/>
							<path class="st4" d="M696.3,708.4c0,1.7-1.3,3-3,3s-3-1.3-3-3s1.3-3,3-3S696.3,706.8,696.3,708.4z"/>
							<path class="st4" d="M700.5,711c0,1.7-1.3,3-3,3s-3-1.3-3-3s1.3-3,3-3S700.5,709.3,700.5,711z"/>
							<path class="st4" d="M697.1,714c0,1.7-1.3,3-3,3s-3-1.3-3-3s1.3-3,3-3S697.1,712.4,697.1,714z"/>
							<path class="st4" d="M684.7,713.8c0,1.7-1.3,3-3,3s-3-1.3-3-3s1.3-3,3-3S684.7,712.1,684.7,713.8z"/>
							<path class="st4" d="M687.3,712.7c0,1.7-1.3,3-3,3s-3-1.3-3-3s1.3-3,3-3S687.3,711,687.3,712.7z"/>
							<path class="st4" d="M689.1,712.7c0,1.7-1.3,3-3,3s-3-1.3-3-3s1.3-3,3-3S689.1,711,689.1,712.7z"/>
							<path class="st4" d="M690.5,716c0,1.7-1.3,3-3,3s-3-1.3-3-3s1.3-3,3-3S690.5,714.4,690.5,716z"/>
							<path class="st4" d="M693.5,716c0,1.7-1.3,3-3,3s-3-1.3-3-3s1.3-3,3-3S693.5,714.4,693.5,716z"/>
							<path class="st4" d="M698.9,716c0,1.7-1.3,3-3,3s-3-1.3-3-3s1.3-3,3-3S698.9,714.4,698.9,716z"/>
							<path class="st4" d="M702.2,718.2c0,1.7-1.3,3-3,3s-3-1.3-3-3s1.3-3,3-3S702.2,716.6,702.2,718.2z"/>
						</g>
						<g>
							<g transform="translate(-4.75,-8.75)">
								<text transform="matrix(1 0 0 1 5.166 446.1)" class="st5 st6 st7">1700</text>
							</g>
							<g transform="translate(-4.75,-8.75)">
								<text transform="matrix(1 0 0 1 33.506 388.34)" class="st5 st6 st7">1720</text>
							</g>
							<g transform="translate(-4.75,-8.75)">
								<text transform="matrix(1 0 0 1 32.376 337.8)" class="st5 st6 st7">1750</text>
							</g>
							<g transform="translate(-4.75,-8.75)">
								<text transform="matrix(1 0 0 1 48.896 319.74)" class="st5 st6 st7">1775</text>
							</g>
							<g transform="translate(-4.75,-8.75)">
								<text transform="matrix(1 0 0 1 70.346 301.69)" class="st5 st6 st7">1800</text>
							</g>
							<g transform="translate(-4.75,-8.75)">
								<text transform="matrix(1 0 0 1 108.596 113.96)" class="st5 st6 st7">1850</text>
							</g>
							<g transform="translate(-4.75,-8.75)">
								<text transform="matrix(1 0 0 1 236.566 41.75)" class="st5 st6 st7">1891</text>
							</g>
							<g transform="translate(-4.75,-8.75)">
								<text transform="matrix(1 0 0 1 316.8361 99.51)" class="st5 st6 st7">1900</text>
							</g>
							<g transform="translate(-4.75,-8.75)">
								<text transform="matrix(1 0 0 1 366.026 502.43)" class="st5 st6 st7">1950</text>
							</g>
							<g transform="translate(-4.75,-8.75)">
								<text transform="matrix(1 0 0 1 626.3359 707.13)" class="st5 st6 st7">2000</text>
							</g>
							<g transform="translate(-4.75,-8.75)">
								<text transform="matrix(1 0 0 1 708.666 718.25)" class="st5 st6 st7">2015</text>
							</g>
						</g>
					</g>
					<g>
						<g>
							<path class="st8" d="M40.8,446.1l28.3-57.8L68,337.8l16.5-18.1l34.4-18l1.3-7.5l-7.9-3.8l-3.5-3.8l10.5-3.8l-4.4-3.8
								l11.9-3.8l-14.6-3.8l4.3-3.8l11.9-3.8l-5.6-3.8l-13.7-3.8l8.9-3.8l-9.1-3.8l20.4-3.8l-16.9-3.8l0.2-3.8l-3.9-3.8l-7.4-3.8
								l15.1-3.8l0.1-3.8l0.6-3.8l3.1-3.8l9.3-3.8l2-3.8l-16.3-3.8l14.7-3.8l-3.9-7.5l7.4-3.8l-0.3-3.8l4.5-3.8l-0.9-3.8l2.7-3.8
								l14.1-3.8l4.7-3.8l-4.9-3.8l6.4-3.8l-4.9-3.8l8.3-3.8l-12.8-7.5l8.7-3.8l17.3-3.8l7.9-3.8l-2.9-3.8l-5.6-3.8l7.1-3.8l3.3-3.8
								l-41.8-3.8l12.1-1.2l2.9-1.2l7.1-1.2l4.4-1.2l-2.9-1.2l16.8-2.3l-1.3-1.2l12.1-3.5l-0.3-1.2l0-1.1l4.5-1.2l7-2.3l-4.4-1.2
								l5.5-1.2l-0.5-1.2l12.3-1.2l10.4-1.2l-0.9-1.2l3.3-1.2l4.9-2.3l-0.2-2.7l-0.3-2.7l-1.6-2.7l-3.5-2.7l8.8-2.7l11.2-5.4l0-2.7
								l-1.4-2.7l-3.2-2.7l1.8-2.7l7.4-2.7l19.2-5.4l-0.9-2.7l-2-2.7l-7.9,6.4l-2.2,6.4l13.3,6.4l5.2,6.4l7.5,6.4l0.8,6.4l9.1,6.4
								l7.4,6.4l-4,6.4l1.8,0.7l-5.2,0.7l5,0.3l8.2,0.7l-12,0.3l16.3,1.4l7.9,4.5l0.3,9.2l17,9.2l4.3,9.2l1.6,9.2l1.7,9.2l-27.4,9.2
								l-16.4,9.2l-5.8,9.2l10.5,9.2l6.3,9.2l8,9.2l10.6,70.8l-9.9,50.5l17.7,4l1.9,2l6.5-2l-2.7-2l-13.7-2l0.5-20.2l5.9-20.2
								l14.5-4l8-6.1l16.7,8.1l1.9,2l-0.2,17.7l21.7,17.7l20.9,17.7l5,17.7l3.3,17.7l-10.7,17.7l-22.4,35.4l-5.1,17.7l5.1,17.7
								l7.3,17.7l-0.6,17.7l6.3,4.7l-1.1,4.7l8.5,4.7l16.5,9.4l1.8,4.7l2.6,4.7l-1.5,4.7l8.1,4.7l11.5,4.7l5.8,4.7l0.2,4.7l7.5,4.7
								l10.7,4.7l7.8,9.4l3.9,4.7l8.5,4.7l3.2,4.7l8.7,9.4l7.6,4.7l15,4.7l-3.3,4.7l-0.2,4.7l5.4,4.7l5.3,4.7l8.4,4.7l6.3,4.7
								l-4.3,4.7l-3.4,4.7l3.9,4.7l8.2,4.7l5.6,4.7l17.2,9.4l10.4,4.7l10.9,4.7l4.5,4.7l0.2,4.7l-3.4,4.7l0.2,4.7l5.4,4.7L628,706
								h5.4l13.6,1.1h6.9h8l5.5,2l4.7,0.2l7.1-2l4.6,3.1l5.4-0.3l7.2-1.6l1.2,2.5l-3.4,3l-12.4-0.2l4.4-1.1l1.5,3.3h8.4l3.4,2.2"/>
						</g>
					</g>
				</g>
			</g>
		</g>
		<path class="st9" d="M0,0"/>
		<path class="st9" d="M0,0"/>
		<g>
			<g>
				<text transform="matrix(1 0 0 1 164.454 833)" class="st5 st6 st10">3</text>
			</g>
			<g>
				<text transform="matrix(1 0 0 1 233.364 833)" class="st5 st6 st10">4</text>
			</g>
			<g>
				<text transform="matrix(1 0 0 1 286.824 833)" class="st5 st6 st10">5</text>
			</g>
			<g>
				<text transform="matrix(1 0 0 1 330.494 833)" class="st5 st6 st10">6</text>
			</g>
			<g>
				<text transform="matrix(1 0 0 1 367.424 833)" class="st5 st6 st10">7</text>
			</g>
			<g>
				<text transform="matrix(1 0 0 1 399.414 833)" class="st5 st6 st10">8</text>
			</g>
			<g>
				<text transform="matrix(1 0 0 1 427.624 833)" class="st5 st6 st10">9</text>
			</g>
			<g>
				<text transform="matrix(1 0 0 1 447.304 845)" class="st5 st6 st7">10k</text>
			</g>
			<g>
				<text transform="matrix(1 0 0 1 618.9041 833)" class="st5 st6 st10">2</text>
			</g>
			<g>
				<text transform="matrix(1 0 0 1 716.0339 833)" class="st5 st6 st10">3</text>
			</g>
			<g>
				<text transform="matrix(1 0 0 1 784.9441 833)" class="st5 st6 st10">4</text>
			</g>
		</g>
		<g>
			<g>
				<text transform="matrix(1 0 0 1 70.104 800.53)" class="st5 st6 st7">0</text>
			</g>
			<g>
				<text transform="matrix(1 0 0 1 52.312 689.33)" class="st5 st6 st7">100</text>
			</g>
			<g>
				<text transform="matrix(1 0 0 1 52.312 578.13)" class="st5 st6 st7">200</text>
			</g>
			<g>
				<text transform="matrix(1 0 0 1 52.312 466.94)" class="st5 st6 st7">300</text>
			</g>
			<g>
				<text transform="matrix(1 0 0 1 52.312 355.74)" class="st5 st6 st7">400</text>
			</g>
			<g>
				<text transform="matrix(1 0 0 1 52.312 244.54)" class="st5 st6 st7">500</text>
			</g>
			<g>
				<text transform="matrix(1 0 0 1 52.312 133.34)" class="st5 st6 st7">600</text>
			</g>
		</g>
	</g>
</g>
<g>
	<g>
		<text transform="matrix(1 0 0 1 45 30)" class="st5 st6 st11">Air Pollution vs GDP Per Capita in London (1700-2015)</text>
	</g>
	<g>
		<text transform="matrix(1 0 0 1 326.8453 882.8)" class="st5 st6 st12">GDP Per Capita (int.-$)</text>
	</g>
	<g transform="translate(3.5029296875,0)">
		<text transform="matrix(6.123234e-17 -1 1 6.123234e-17 20.4968 635.4297)" class="st5 st6 st12">Suspended Particulate Matter (SPM)</text>
	</g>
</g>
</svg>
