<?xml version="1.0" encoding="utf-8"?>
<!-- Generator: Adobe Illustrator 27.3.1, SVG Export Plug-In . SVG Version: 6.00 Build 0)  -->
<svg version="1.1" id="Layer_1" xmlns="http://www.w3.org/2000/svg" xmlns:xlink="http://www.w3.org/1999/xlink" x="0px" y="0px"
	 viewBox="0 0 800 800" style="enable-background:new 0 0 800 800;" xml:space="preserve">
<style type="text/css">
	.st0{fill:#E5ECF6;}
	.st1{stroke:#FFFFFF;}
	.st2{clip-path:url(#SVGID_00000042723692788889275940000008740092114062582425_);}
	.st3{fill:none;}
	.st4{fill:#2A3F5F;}
	.st5{font-family:'Verdana';}
	.st6{font-size:12px;}
	.st7{fill-opacity:0;}
	.st8{fill:url(#SVGID_00000109022777451513829490000011811422658291378078_);}
	.st9{font-size:19px;}
	.st10{font-family:'Avenir-Roman';}
	.st11{font-size:30px;}
	.st12{font-size:24px;}
	.st13{fill:#231F20;}
	.st14{font-size:20px;}
</style>
<g>
	<rect x="114" y="98.5" class="st0" width="583" height="583"/>
</g>
<g>
	<g>
		<g>
			<g>
				<path class="st1" d="M155.6,98.5v583"/>
				<path class="st1" d="M238.9,98.5v583"/>
				<path class="st1" d="M322.2,98.5v583"/>
				<path class="st1" d="M405.5,98.5v583"/>
				<path class="st1" d="M488.8,98.5v583"/>
				<path class="st1" d="M572.1,98.5v583"/>
				<path class="st1" d="M655.4,98.5v583"/>
			</g>
			<g>
				<path class="st1" d="M114,639.9h583"/>
				<path class="st1" d="M114,556.6h583"/>
				<path class="st1" d="M114,473.3h583"/>
				<path class="st1" d="M114,390h583"/>
				<path class="st1" d="M114,306.7h583"/>
				<path class="st1" d="M114,223.4h583"/>
				<path class="st1" d="M114,140.1h583"/>
			</g>
		</g>
		<path class="st1" d="M0,0"/>
		<path class="st1" d="M0,0"/>
		<g>
			<defs>
				<rect id="SVGID_1_" x="114" y="98.5" width="583" height="583"/>
			</defs>
			<clipPath id="SVGID_00000067221984342759401560000018106433937694544039_">
				<use xlink:href="#SVGID_1_"  style="overflow:visible;"/>
			</clipPath>
			<g transform="translate(114,98.5)" style="clip-path:url(#SVGID_00000067221984342759401560000018106433937694544039_);">
				<g>
					<g>
						<image style="overflow:visible;enable-background:new    ;" width="583" height="583" xlink:href="74FCF29BC68FED34.png" >
						</image>
					</g>
				</g>
			</g>
		</g>
		<path class="st3" d="M0,0"/>
		<path class="st3" d="M0,0"/>
		<g>
			<g>
				<text transform="matrix(1 0 0 1 122.3383 694.5)" class="st4 st5 st6">STP3_1_SI</text>
			</g>
			<g>
				<text transform="matrix(1 0 0 1 209.0853 694.5)" class="st4 st5 st6">STP3A_RI</text>
			</g>
			<g>
				<text transform="matrix(1 0 0 1 285.498 694.5)" class="st4 st5 st6">STP14_4_TI</text>
			</g>
			<g>
				<text transform="matrix(1 0 0 1 368.7881 694.5)" class="st4 st5 st6">STP14_5_TI</text>
			</g>
			<g>
				<text transform="matrix(1 0 0 1 450.7129 694.5)" class="st4 st5 st6">STP19_EE_9</text>
			</g>
			<g>
				<text transform="matrix(1 0 0 1 556.8123 694.5)" class="st4 st5 st6">2018</text>
			</g>
			<g>
				<text transform="matrix(1 0 0 1 624.2994 694.5)" class="st4 st5 st6">GWRPM25</text>
			</g>
		</g>
	</g>
</g>
<g>
	<g transform="translate(114,60)">
		<rect x="595" class="st7" width="79.5" height="660"/>
		<g transform="translate(0,10)">
			
				<linearGradient id="SVGID_00000075876791144355584430000007171550834920370341_" gradientUnits="userSpaceOnUse" x1="-653.8666" y1="869.7828" x2="-653.8666" y2="870.7828" gradientTransform="matrix(30 0 0 -640 20236 557301)">
				<stop  offset="0" style="stop-color:#CE1126"/>
				<stop  offset="1" style="stop-color:#FCD116"/>
			</linearGradient>
			<rect x="605" style="fill:url(#SVGID_00000075876791144355584430000007171550834920370341_);" width="30" height="640"/>
		</g>
		<g transform="translate(0,10)">
		</g>
		<g transform="translate(0,-60)">
			<g>
				<text transform="matrix(1 0 0 1 637.9 638.55)" class="st4 st5 st9">−0.4</text>
			</g>
			<g>
				<text transform="matrix(1 0 0 1 637.9 557.93)" class="st4 st5 st9">−0.2</text>
			</g>
			<g>
				<text transform="matrix(1 0 0 1 637.9 477.31)" class="st4 st5 st9">0</text>
			</g>
			<g>
				<text transform="matrix(1 0 0 1 637.9 396.68)" class="st4 st5 st9">0.2</text>
			</g>
			<g>
				<text transform="matrix(1 0 0 1 637.9 316.06)" class="st4 st5 st9">0.4</text>
			</g>
			<g>
				<text transform="matrix(1 0 0 1 637.9 235.44)" class="st4 st5 st9">0.6</text>
			</g>
			<g>
				<text transform="matrix(1 0 0 1 637.9 154.82)" class="st4 st5 st9">0.8</text>
			</g>
			<g>
				<text transform="matrix(1 0 0 1 637.9 74.2)" class="st4 st5 st9">1</text>
			</g>
		</g>
		<g transform="translate(-114,-60)">
		</g>
		<rect x="605" y="10" class="st3" width="30" height="640"/>
	</g>
	<g>
		<text transform="matrix(1 0 0 1 301.2014 65.4405)" class="st10 st11">Correlation Map</text>
	</g>
	<g>
		<text transform="matrix(1 0 0 1 342.0317 737.9494)" class="st4 st5 st12">Variables</text>
	</g>
</g>
<line class="st13" x1="0" y1="803.8" x2="0" y2="3.8"/>
<g>
	<g>
		<text transform="matrix(1 0 0 1 8.9062 638.7502)" class="st13 st5 st14">GWRPM25</text>
		<text transform="matrix(1 0 0 1 8.9062 662.7502)" class="st13 st5 st14">PM 2.5</text>
	</g>
	<g>
		<text transform="matrix(1 0 0 1 54.3398 564.6165)" class="st13 st5 st14">2018</text>
		<text transform="matrix(1 0 0 1 54.3398 588.6165)" class="st13 st5 st14">GDP</text>
	</g>
	<g>
		<text transform="matrix(1 0 0 1 38.1455 460.7545)" class="st13 st5 st14">STP19_EE_9</text>
		<text transform="matrix(1 0 0 1 38.1455 484.7545)" class="st13 st5 st14">Count of households that report not receiving </text>
		<text transform="matrix(1 0 0 1 38.1455 508.7545)" class="st13 st5 st14">electricity billing in Stratum 1-6</text>
	</g>
	<g>
		<text transform="matrix(1 0 0 1 39.5762 375.9928)" class="st13 st5 st14">STP14_5_TI</text>
		<text transform="matrix(1 0 0 1 39.5762 399.9928)" class="st13 st5 st14">Count of traditional ethnic housing units </text>
		<text transform="matrix(1 0 0 1 39.5762 423.9928)" class="st13 st5 st14">(Afro-Colombian, Islander, Romani)</text>
	</g>
	<g>
		<text transform="matrix(1 0 0 1 39.5762 310.5563)" class="st13 st5 st14">STP14_4_TI</text>
		<text transform="matrix(1 0 0 1 39.5762 334.5563)" class="st13 st5 st14">Traditional Indigenous housing units</text>
	</g>
	<g>
		<text transform="matrix(1 0 0 1 39.5762 212.5947)" class="st13 st5 st14">STP3A_RI</text>
		<text transform="matrix(1 0 0 1 39.5762 236.5947)" class="st13 st5 st14">Number of surveys that reported </text>
		<text transform="matrix(1 0 0 1 39.5762 260.5947)" class="st13 st5 st14">to be in ethnic territory Indigenous reserve</text>
	</g>
	<g>
		<text transform="matrix(1 0 0 1 41.3359 129.29)" class="st13 st5 st14">STP3_1_SI</text>
		<text transform="matrix(1 0 0 1 41.3359 153.29)" class="st13 st5 st14">Number of surveys that </text>
		<text transform="matrix(1 0 0 1 41.3359 177.29)" class="st13 st5 st14">reported to be in ethnic territory</text>
	</g>
</g>
</svg>
