<?xml version="1.0" encoding="utf-8"?>
<!-- Generator: Adobe Illustrator 27.3.1, SVG Export Plug-In . SVG Version: 6.00 Build 0)  -->
<svg version="1.1" id="Layer_1" xmlns="http://www.w3.org/2000/svg" xmlns:xlink="http://www.w3.org/1999/xlink" x="0px" y="0px"
	 viewBox="0 0 291.2 80.5" style="enable-background:new 0 0 291.2 80.5;" xml:space="preserve">
<style type="text/css">
	.st0{fill:#231F20;}
</style>
<g id="Template">
	<path class="st0" d="M24.2,67.9c-1.5,3-4.6,5-9.5,5c-9.2,0-14.5-6.4-14.5-15.2v-0.3C0.2,48.5,6.1,42,14.6,42c3.8,0,7,1.2,8.7,3.9
		v-3.5h3.3v9.1h-3.1c-1.2-4.7-4.3-6.6-8.8-6.6C7.9,44.9,4,49.9,4,57.3v0.3c0,7.5,3.7,12.3,10.8,12.3c6.8,0,9.6-4.7,9.6-9.6h-9v-3
		h12.2v15.1h-3.3L24.2,67.9L24.2,67.9z M31.6,61.7v-0.3c0-6.6,4.2-11.3,10.3-11.3c5.1,0,9.9,3.1,9.9,10.9v1.1H35.2
		c0.2,5,2.6,7.8,7.1,7.8c3.4,0,5.4-1.3,5.8-3.8h3.5c-0.8,4.4-4.4,6.7-9.4,6.7C36,72.9,31.6,68.5,31.6,61.7z M48.2,59.4
		c-0.3-4.5-2.7-6.4-6.3-6.4s-6,2.4-6.5,6.3L48.2,59.4z M54.5,61.7v-0.3c0-6.6,4.6-11.2,10.8-11.2s10.8,4.6,10.8,11.2v0.3
		c0,6.6-4.6,11.2-10.8,11.2S54.5,68.1,54.5,61.7z M72.5,61.7v-0.3c0-5.1-2.8-8.4-7.2-8.4s-7.2,3.3-7.2,8.3v0.3c0,5,2.7,8.3,7.2,8.3
		S72.5,66.7,72.5,61.7L72.5,61.7z M79.4,73.8h3.6c0.5,2.5,2.6,3.8,6.3,3.8c4.3,0,7.1-2.1,7.1-6.8v-3.2c-1.6,2.5-4.4,4.1-7.4,4.2
		c-5.8,0-10-4.4-10-10.4v-0.3c0-6,4.2-10.9,10.2-10.9c2.9-0.1,5.7,1.4,7.2,3.9v-3.5h6.5v2.9h-3V71c0,6.4-4.4,9.5-10.5,9.5
		C82.8,80.5,79.9,77.5,79.4,73.8L79.4,73.8z M96.4,61.1v-0.3c0-4.9-2.7-7.8-7-7.8s-7,3.2-7,7.9v0.3c0,4.8,3.1,7.6,6.8,7.6
		C93.3,68.9,96.4,66,96.4,61.1z M104.5,72.5v-2.7h3.1V53.4h-3.2v-2.9h6.6v4.2c1-2.3,3.3-4.5,7.9-4.6v3.4c-4.8,0-7.9,1.5-7.9,6.8v9.3
		h3.4v2.7L104.5,72.5L104.5,72.5z M127.8,72.9c-4,0-7.1-2-7.1-6.5c0-5.1,5.3-6.8,10.8-6.8h3.1V58c0-3.7-1.5-5-4.6-5
		c-2.9,0-4.5,1.1-4.9,4h-3.5c0.4-5.2,4.4-6.8,8.5-6.8c4.2,0,7.9,1.5,7.9,7.9v11.7h2.9v2.7h-6.4v-3C133.2,71.8,130.6,73.1,127.8,72.9
		z M134.6,64.8v-2.7h-2.9c-4.3,0-7.5,1.1-7.5,4.3c0,2,1,3.7,4,3.7C131.8,70.1,134.6,68.2,134.6,64.8z M142.5,80.1v-2.7h3.1v-24h-3.1
		v-2.9h6.6v3.9c1.6-2.6,4.4-4.2,7.4-4.2c5.8,0,10,4.2,10,11v0.3c0,6.7-4,11.3-10,11.3c-3,0.1-5.9-1.4-7.4-4.1v8.6h3.4v2.7
		L142.5,80.1L142.5,80.1z M162.8,61.7v-0.3c0-5.5-3.1-8.3-6.8-8.3c-4.1,0-7.2,2.7-7.2,8.3v0.3c0,5.5,3,8.3,7.2,8.3
		S162.8,67,162.8,61.7z M168.7,72.5v-2.7h3.1V42.9h-3.1V40h6.6v14.2c1.3-2.6,4-4.1,6.9-4.1c4.4,0,7.6,2.3,7.6,8.7v10.9h3.1v2.7h-9.7
		v-2.7h3.1V58.6c0-3.7-1.7-5.4-5.1-5.4c-3.1-0.2-5.8,2.2-6,5.4c0,0.2,0,0.4,0,0.5v10.7h3.1v2.7L168.7,72.5L168.7,72.5z M213,53.4
		l-11,26.8h-5.6v-2.7h3.4l3-7.2l-7.4-16.8h-2.8v-2.9h9.7v2.9h-3.2l5.5,12.9l5-12.9h-3.3v-2.9h9.4v2.9L213,53.4L213,53.4z M238.2,0.5
		h3.6l8.7,20h-5l-1.7-4.2H236l-1.7,4.2h-4.9L238.2,0.5z M239.9,6.3l-2.4,6.2h4.9L239.9,6.3z M212.9,0.5h7.4c0.9,0,1.7,0.1,2.6,0.2
		c0.8,0.1,1.6,0.4,2.4,0.7c0.7,0.4,1.2,0.9,1.6,1.6c0.5,0.8,0.7,1.7,0.6,2.6c0,1-0.3,2-0.9,2.8c-0.7,0.8-1.5,1.3-2.5,1.6l0,0
		c0.6,0.1,1.2,0.3,1.8,0.6c0.5,0.2,1,0.6,1.4,1c0.4,0.4,0.7,0.9,0.9,1.4c0.2,0.6,0.3,1.2,0.3,1.8c0,0.9-0.2,1.8-0.7,2.6
		c-0.4,0.7-1,1.3-1.8,1.7c-0.7,0.4-1.6,0.8-2.4,0.9c-0.9,0.2-1.8,0.3-2.7,0.3h-8.2L212.9,0.5L212.9,0.5z M217.3,8.5h3.2
		c0.3,0,0.7,0,1-0.1c0.3-0.1,0.6-0.2,0.9-0.4c0.3-0.2,0.5-0.4,0.6-0.7c0.2-0.3,0.2-0.7,0.2-1c0-0.4-0.1-0.7-0.3-1
		c-0.2-0.3-0.4-0.5-0.7-0.6c-0.3-0.2-0.7-0.3-1-0.3c-0.3-0.1-0.7-0.1-1-0.1h-3L217.3,8.5z M217.3,16.8h4c0.3,0,0.7,0,1-0.1
		c0.3-0.1,0.7-0.2,0.9-0.4c0.3-0.2,0.5-0.4,0.7-0.7c0.2-0.3,0.3-0.7,0.3-1.1c0-0.4-0.1-0.8-0.4-1.1c-0.2-0.3-0.5-0.5-0.9-0.7
		c-0.4-0.2-0.8-0.3-1.2-0.3c-0.4-0.1-0.8-0.1-1.2-0.1h-3.4L217.3,16.8L217.3,16.8z M252.6,0.5h7.7c1,0,1.9,0.1,2.9,0.3
		c0.9,0.2,1.7,0.5,2.4,1c0.7,0.5,1.3,1.1,1.6,1.9c0.4,0.9,0.6,1.9,0.6,2.9c0,1.3-0.3,2.6-1.1,3.6c-0.8,1-1.9,1.7-3.2,1.9l5.1,8.4
		h-5.3l-4.2-8H257v8h-4.4L252.6,0.5L252.6,0.5z M257,8.8h3.9c0.4,0,0.8-0.1,1.2-0.2c0.4-0.1,0.7-0.4,0.9-0.7
		c0.3-0.4,0.4-0.8,0.4-1.3c0-0.4-0.1-0.8-0.3-1.2c-0.2-0.3-0.5-0.5-0.8-0.7c-0.3-0.2-0.7-0.3-1.1-0.3c-0.4-0.1-0.8-0.1-1.2-0.1H257
		V8.8z M178.7,0.5h3.6l8.7,20h-5l-1.7-4.2h-7.8l-1.7,4.2h-4.9L178.7,0.5z M180.4,6.3l-2.4,6.2h4.9L180.4,6.3z M278.9,0.5h3.6l8.7,20
		h-5l-1.7-4.2h-7.8l-1.7,4.2h-4.9L278.9,0.5z M280.5,6.3l-2.4,6.2h4.9L280.5,6.3z M153.4,0.5h7.4c0.9,0,1.7,0.1,2.6,0.2
		c0.8,0.1,1.6,0.4,2.4,0.7c0.7,0.4,1.3,0.9,1.7,1.6c0.5,0.8,0.7,1.7,0.6,2.6c0,1-0.3,2-0.9,2.8c-0.7,0.8-1.5,1.3-2.5,1.6l0,0
		c0.6,0.1,1.2,0.3,1.8,0.6c0.5,0.2,1,0.6,1.4,1c0.4,0.4,0.7,0.9,0.9,1.5c0.2,0.6,0.3,1.2,0.3,1.8c0,0.9-0.2,1.8-0.7,2.6
		c-0.4,0.7-1,1.3-1.8,1.7c-0.7,0.4-1.6,0.8-2.4,0.9c-0.9,0.2-1.8,0.3-2.7,0.3h-8.2L153.4,0.5L153.4,0.5z M157.8,8.5h3.2
		c0.3,0,0.7,0,1-0.1c0.3-0.1,0.6-0.2,0.9-0.4c0.3-0.2,0.5-0.4,0.6-0.7c0.2-0.3,0.2-0.7,0.2-1c0-0.4-0.1-0.7-0.3-1
		c-0.2-0.3-0.4-0.5-0.7-0.6c-0.3-0.2-0.7-0.3-1-0.3c-0.3-0.1-0.7-0.1-1-0.1h-3L157.8,8.5z M157.8,16.8h3.9c0.3,0,0.7,0,1-0.1
		c0.3-0.1,0.7-0.2,0.9-0.4c0.3-0.2,0.5-0.4,0.7-0.7c0.2-0.3,0.3-0.7,0.3-1.1c0-0.4-0.1-0.8-0.4-1.1c-0.2-0.3-0.5-0.5-0.9-0.7
		c-0.4-0.2-0.8-0.3-1.2-0.3c-0.4-0.1-0.8-0.1-1.2-0.1h-3.3L157.8,16.8L157.8,16.8z M193.2,0.5h7.7c1,0,1.9,0.1,2.9,0.3
		c0.9,0.2,1.7,0.5,2.4,1c0.7,0.5,1.3,1.1,1.6,1.9c0.4,0.9,0.6,1.9,0.6,2.9c0,1.3-0.3,2.6-1.1,3.6c-0.8,1-1.9,1.7-3.2,1.9l5.1,8.4
		h-5.3l-4.2-8h-2.2v8h-4.4L193.2,0.5L193.2,0.5z M197.6,8.8h3.9c0.4,0,0.8-0.1,1.2-0.2c0.4-0.1,0.7-0.4,0.9-0.7
		c0.3-0.4,0.4-0.8,0.4-1.3c0-0.4-0.1-0.8-0.3-1.2c-0.2-0.3-0.5-0.5-0.8-0.7c-0.3-0.2-0.7-0.3-1.1-0.3c-0.4-0.1-0.8-0.1-1.2-0.1h-2.9
		V8.8z M73.4,0.5h3.6l8.7,20h-5L79,16.3h-7.7l-1.7,4.2h-4.8L73.4,0.5z M75.1,6.3l-2.4,6.2h4.9L75.1,6.3z M132.7,0.5h3.6l8.7,20h-5
		l-1.7-4.2h-7.8l-1.7,4.2h-4.8L132.7,0.5z M134.4,6.3l-2.4,6.2h4.9L134.4,6.3z M88.2,0.5h6l8.5,13.9h0.1V0.5h4.4v20h-5.8L92.6,6.3
		h-0.1v14.2h-4.4V0.5z M115.7,4.4h-5.5V0.5H126v3.9h-5.9v16.1h-4.4V4.4z M9.5,20.8c-4.6,0-7.3-2.7-7.3-7.6V2.4H0V0.5h7.3v1.9H4.7
		v10.4c0,4.2,1.5,5.9,4.9,5.9s5.1-1.3,5.1-6.2V2.4h-2.5V0.5h7.3v1.9h-2.3v10.4C17.2,17.8,14.7,20.8,9.5,20.8z M37,13.8
		c-0.5,3.3-2.8,5-6.1,5c-4.4,0-7-3.1-7-8.3v-0.2c0-5.1,2.8-8.3,7-8.3c3.1,0,5.2,1.3,6,4.7h2.1V0.5h-2.2v2.2C35.7,0.9,33.5,0,31,0
		c-5.6,0-9.6,4.3-9.6,10.3v0.2c0,6.2,3.6,10.2,9.5,10.2c4.5,0,7.6-2.2,8.4-6.7L37,13.8z M57.4,8.5c-2.4-0.6-4.3-1.3-4.3-2.7
		c0.1-1.3,1.2-2.4,2.5-2.3c0,0,0,0,0,0h0.2c1.8-0.1,3.4,0.7,4.5,2.1l2.8-2.4C61.3,0.4,58,0,56.3,0c-4.4,0-7.5,2.6-7.5,6.2
		s3.3,5.1,6.6,6c2.8,0.8,3.9,1.2,3.9,2.8c0,1.3-1.2,2.2-3.1,2.2c-2.1,0-4-1-5.2-2.7l-3,2.6c1.5,2.5,4.2,3.7,7.9,3.7
		c4.6,0,7.8-2.6,7.8-6.5S60.4,9.3,57.4,8.5L57.4,8.5z"/>
</g>
</svg>
