<?xml version="1.0" encoding="utf-8"?>
<!-- Generator: Adobe Illustrator 27.3.1, SVG Export Plug-In . SVG Version: 6.00 Build 0)  -->
<svg version="1.1" id="Layer_1" xmlns="http://www.w3.org/2000/svg" xmlns:xlink="http://www.w3.org/1999/xlink" x="0px" y="0px"
	 viewBox="0 0 1000 1000" style="enable-background:new 0 0 1000 1000;" xml:space="preserve">
<style type="text/css">
	.st0{fill:#FFFFFF;}
	.st1{stroke:#FFFFFF;}
	.st2{stroke:#FFFFFF;stroke-width:2;}
	.st3{clip-path:url(#SVGID_00000114054984300041854620000001230005965898927244_);}
	.st4{fill:#636EFA;}
	.st5{fill:none;stroke:#4182A4;stroke-width:5;stroke-miterlimit:2;}
	.st6{fill:none;}
	.st7{fill:#2A3F5F;}
	.st8{font-family:'Verdana';}
	.st9{font-size:20px;}
	.st10{font-size:25px;}
	.st11{font-family:'Lato-Bold';}
	.st12{font-size:35px;}
	.st13{font-size:30px;}
</style>
<rect class="st0" width="1000" height="1000"/>
<g>
	<g>
		<g>
			<g>
				<path class="st1" d="M179.2,60v860"/>
				<path class="st1" d="M257.5,60v860"/>
				<path class="st1" d="M318.3,60v860"/>
				<path class="st1" d="M368,60v860"/>
				<path class="st1" d="M409.9,60v860"/>
				<path class="st1" d="M446.3,60v860"/>
				<path class="st1" d="M478.4,60v860"/>
				<path class="st1" d="M507,60v860"/>
				<path class="st1" d="M695.8,60v860"/>
				<path class="st1" d="M806.2,60v860"/>
				<path class="st1" d="M884.5,60v860"/>
			</g>
			<g>
				<path class="st1" d="M80,766.2h840"/>
				<path class="st1" d="M80,640.2h840"/>
				<path class="st1" d="M80,514.2h840"/>
				<path class="st1" d="M80,388.2h840"/>
				<path class="st1" d="M80,262.2h840"/>
				<path class="st1" d="M80,136.2h840"/>
			</g>
		</g>
		<g>
			<path class="st2" d="M80,892.2h840"/>
		</g>
		<path class="st2" d="M0,0"/>
		<path class="st2" d="M0,0"/>
		<g>
			<defs>
				<rect id="SVGID_1_" x="80" y="60" width="840" height="860"/>
			</defs>
			<clipPath id="SVGID_00000085227309678022524270000009062934999358106008_">
				<use xlink:href="#SVGID_1_"  style="overflow:visible;"/>
			</clipPath>
			<g transform="translate(80,60)" style="clip-path:url(#SVGID_00000085227309678022524270000009062934999358106008_);">
				<g>
					<g>
						<g>
							<path class="st4" d="M48.8,504.9c0,1.7-1.3,3-3,3s-3-1.3-3-3s1.3-3,3-3S48.8,503.2,48.8,504.9z"/>
							<path class="st4" d="M81,439.5c0,1.7-1.3,3-3,3s-3-1.3-3-3s1.3-3,3-3S81,437.8,81,439.5z"/>
							<path class="st4" d="M79.7,382.2c0,1.7-1.3,3-3,3s-3-1.3-3-3s1.3-3,3-3S79.7,380.5,79.7,382.2z"/>
							<path class="st4" d="M98.4,361.7c0,1.7-1.3,3-3,3s-3-1.3-3-3s1.3-3,3-3S98.4,360.1,98.4,361.7z"/>
							<path class="st4" d="M137.6,341.3c0,1.7-1.3,3-3,3s-3-1.3-3-3s1.3-3,3-3S137.6,339.6,137.6,341.3z"/>
							<path class="st4" d="M138.2,337c0,1.7-1.3,3-3,3s-3-1.3-3-3s1.3-3,3-3S138.2,335.4,138.2,337z"/>
							<path class="st4" d="M139.1,332.8c0,1.7-1.3,3-3,3s-3-1.3-3-3s1.3-3,3-3S139.1,331.1,139.1,332.8z"/>
							<path class="st4" d="M130.1,328.5c0,1.7-1.3,3-3,3s-3-1.3-3-3s1.3-3,3-3S130.1,326.9,130.1,328.5z"/>
							<path class="st4" d="M126.1,324.3c0,1.7-1.3,3-3,3s-3-1.3-3-3s1.3-3,3-3S126.1,322.6,126.1,324.3z"/>
							<path class="st4" d="M138.1,320c0,1.7-1.3,3-3,3s-3-1.3-3-3s1.3-3,3-3S138.1,318.3,138.1,320z"/>
							<path class="st4" d="M133.1,315.8c0,1.7-1.3,3-3,3s-3-1.3-3-3s1.3-3,3-3S133.1,314.1,133.1,315.8z"/>
							<path class="st4" d="M146.6,311.5c0,1.7-1.3,3-3,3s-3-1.3-3-3s1.3-3,3-3S146.6,309.8,146.6,311.5z"/>
							<path class="st4" d="M130,307.2c0,1.7-1.3,3-3,3s-3-1.3-3-3s1.3-3,3-3S130,305.6,130,307.2z"/>
							<path class="st4" d="M134.8,303c0,1.7-1.3,3-3,3s-3-1.3-3-3s1.3-3,3-3S134.8,301.3,134.8,303z"/>
							<path class="st4" d="M148.4,298.7c0,1.7-1.3,3-3,3s-3-1.3-3-3s1.3-3,3-3S148.4,297.1,148.4,298.7z"/>
							<path class="st4" d="M142,294.5c0,1.7-1.3,3-3,3s-3-1.3-3-3s1.3-3,3-3S142,292.8,142,294.5z"/>
							<path class="st4" d="M126.4,290.2c0,1.7-1.3,3-3,3s-3-1.3-3-3s1.3-3,3-3S126.4,288.6,126.4,290.2z"/>
							<path class="st4" d="M136.5,286c0,1.7-1.3,3-3,3s-3-1.3-3-3s1.3-3,3-3S136.5,284.3,136.5,286z"/>
							<path class="st4" d="M126.1,281.7c0,1.7-1.3,3-3,3s-3-1.3-3-3s1.3-3,3-3S126.1,280.1,126.1,281.7z"/>
							<path class="st4" d="M149.3,277.5c0,1.7-1.3,3-3,3s-3-1.3-3-3s1.3-3,3-3S149.3,275.8,149.3,277.5z"/>
							<path class="st4" d="M130.1,273.2c0,1.7-1.3,3-3,3c-1.7,0-3-1.3-3-3s1.3-3,3-3C128.7,270.2,130.1,271.6,130.1,273.2z"/>
							<path class="st4" d="M130.3,269c0,1.7-1.3,3-3,3c-1.7,0-3-1.3-3-3s1.3-3,3-3C129,266,130.3,267.3,130.3,269z"/>
							<path class="st4" d="M125.9,264.7c0,1.7-1.3,3-3,3s-3-1.3-3-3s1.3-3,3-3S125.9,263,125.9,264.7z"/>
							<path class="st4" d="M117.4,260.4c0,1.7-1.3,3-3,3s-3-1.3-3-3s1.3-3,3-3S117.4,258.8,117.4,260.4z"/>
							<path class="st4" d="M134.6,256.2c0,1.7-1.3,3-3,3s-3-1.3-3-3s1.3-3,3-3S134.6,254.5,134.6,256.2z"/>
							<path class="st4" d="M134.8,251.9c0,1.7-1.3,3-3,3s-3-1.3-3-3s1.3-3,3-3S134.8,250.3,134.8,251.9z"/>
							<path class="st4" d="M135.4,247.7c0,1.7-1.3,3-3,3s-3-1.3-3-3s1.3-3,3-3S135.4,246,135.4,247.7z"/>
							<path class="st4" d="M139,243.4c0,1.7-1.3,3-3,3s-3-1.3-3-3s1.3-3,3-3S139,241.8,139,243.4z"/>
							<path class="st4" d="M149.5,239.2c0,1.7-1.3,3-3,3s-3-1.3-3-3s1.3-3,3-3S149.5,237.5,149.5,239.2z"/>
							<path class="st4" d="M151.9,234.9c0,1.7-1.3,3-3,3s-3-1.3-3-3s1.3-3,3-3S151.9,233.3,151.9,234.9z"/>
							<path class="st4" d="M133.3,230.7c0,1.7-1.3,3-3,3s-3-1.3-3-3s1.3-3,3-3S133.3,229,133.3,230.7z"/>
							<path class="st4" d="M150,226.4c0,1.7-1.3,3-3,3s-3-1.3-3-3s1.3-3,3-3S150,224.8,150,226.4z"/>
							<path class="st4" d="M147,222.2c0,1.7-1.3,3-3,3s-3-1.3-3-3s1.3-3,3-3S147,220.5,147,222.2z"/>
							<path class="st4" d="M145.6,217.9c0,1.7-1.3,3-3,3s-3-1.3-3-3s1.3-3,3-3S145.6,216.2,145.6,217.9z"/>
							<path class="st4" d="M154,213.6c0,1.7-1.3,3-3,3s-3-1.3-3-3s1.3-3,3-3S154,212,154,213.6z"/>
							<path class="st4" d="M153.7,209.4c0,1.7-1.3,3-3,3s-3-1.3-3-3s1.3-3,3-3S153.7,207.7,153.7,209.4z"/>
							<path class="st4" d="M158.8,205.1c0,1.7-1.3,3-3,3s-3-1.3-3-3s1.3-3,3-3S158.8,203.5,158.8,205.1z"/>
							<path class="st4" d="M157.8,200.9c0,1.7-1.3,3-3,3s-3-1.3-3-3s1.3-3,3-3S157.8,199.2,157.8,200.9z"/>
							<path class="st4" d="M160.8,196.6c0,1.7-1.3,3-3,3s-3-1.3-3-3s1.3-3,3-3S160.8,195,160.8,196.6z"/>
							<path class="st4" d="M176.9,192.4c0,1.7-1.3,3-3,3s-3-1.3-3-3s1.3-3,3-3S176.9,190.7,176.9,192.4z"/>
							<path class="st4" d="M182.2,188.1c0,1.7-1.3,3-3,3s-3-1.3-3-3s1.3-3,3-3S182.2,186.5,182.2,188.1z"/>
							<path class="st4" d="M176.6,183.9c0,1.7-1.3,3-3,3s-3-1.3-3-3s1.3-3,3-3S176.6,182.2,176.6,183.9z"/>
							<path class="st4" d="M183.9,179.6c0,1.7-1.3,3-3,3s-3-1.3-3-3s1.3-3,3-3S183.9,178,183.9,179.6z"/>
							<path class="st4" d="M178.3,175.4c0,1.7-1.3,3-3,3s-3-1.3-3-3s1.3-3,3-3S178.3,173.7,178.3,175.4z"/>
							<path class="st4" d="M187.8,171.1c0,1.7-1.3,3-3,3s-3-1.3-3-3s1.3-3,3-3S187.8,169.4,187.8,171.1z"/>
							<path class="st4" d="M179.2,166.9c0,1.7-1.3,3-3,3s-3-1.3-3-3s1.3-3,3-3S179.2,165.2,179.2,166.9z"/>
							<path class="st4" d="M173.2,162.6c0,1.7-1.3,3-3,3s-3-1.3-3-3s1.3-3,3-3S173.2,160.9,173.2,162.6z"/>
							<path class="st4" d="M183.1,158.3c0,1.7-1.3,3-3,3s-3-1.3-3-3s1.3-3,3-3S183.1,156.7,183.1,158.3z"/>
							<path class="st4" d="M202.7,154.1c0,1.7-1.3,3-3,3s-3-1.3-3-3s1.3-3,3-3S202.7,152.4,202.7,154.1z"/>
							<path class="st4" d="M211.7,149.8c0,1.7-1.3,3-3,3s-3-1.3-3-3s1.3-3,3-3S211.7,148.2,211.7,149.8z"/>
							<path class="st4" d="M208.4,145.6c0,1.7-1.3,3-3,3s-3-1.3-3-3s1.3-3,3-3S208.4,143.9,208.4,145.6z"/>
							<path class="st4" d="M202,141.3c0,1.7-1.3,3-3,3s-3-1.3-3-3s1.3-3,3-3S202,139.7,202,141.3z"/>
							<path class="st4" d="M210,137.1c0,1.7-1.3,3-3,3s-3-1.3-3-3s1.3-3,3-3S210,135.4,210,137.1z"/>
							<path class="st4" d="M213.8,132.8c0,1.7-1.3,3-3,3s-3-1.3-3-3s1.3-3,3-3S213.8,131.2,213.8,132.8z"/>
							<path class="st4" d="M166.3,128.6c0,1.7-1.3,3-3,3s-3-1.3-3-3c0-1.7,1.3-3,3-3S166.3,126.9,166.3,128.6z"/>
							<path class="st4" d="M180.1,127.2c0,1.7-1.3,3-3,3s-3-1.3-3-3c0-1.7,1.3-3,3-3S180.1,125.6,180.1,127.2z"/>
							<path class="st4" d="M183.4,125.9c0,1.7-1.3,3-3,3s-3-1.3-3-3s1.3-3,3-3S183.4,124.3,183.4,125.9z"/>
							<path class="st4" d="M191.5,124.6c0,1.7-1.3,3-3,3s-3-1.3-3-3s1.3-3,3-3S191.5,123,191.5,124.6z"/>
							<path class="st4" d="M196.4,123.3c0,1.7-1.3,3-3,3s-3-1.3-3-3s1.3-3,3-3S196.4,121.7,196.4,123.3z"/>
							<path class="st4" d="M193.1,122c0,1.7-1.3,3-3,3s-3-1.3-3-3s1.3-3,3-3S193.1,120.4,193.1,122z"/>
							<path class="st4" d="M209.4,120.7c0,1.7-1.3,3-3,3s-3-1.3-3-3s1.3-3,3-3S209.4,119.1,209.4,120.7z"/>
							<path class="st4" d="M212.2,119.4c0,1.7-1.3,3-3,3s-3-1.3-3-3s1.3-3,3-3S212.2,117.7,212.2,119.4z"/>
							<path class="st4" d="M210.7,118.1c0,1.7-1.3,3-3,3s-3-1.3-3-3s1.3-3,3-3S210.7,116.4,210.7,118.1z"/>
							<path class="st4" d="M215.4,116.8c0,1.7-1.3,3-3,3s-3-1.3-3-3s1.3-3,3-3S215.4,115.1,215.4,116.8z"/>
							<path class="st4" d="M219.3,115.5c0,1.7-1.3,3-3,3s-3-1.3-3-3s1.3-3,3-3S219.3,113.8,219.3,115.5z"/>
							<path class="st4" d="M224.4,114.2c0,1.7-1.3,3-3,3s-3-1.3-3-3s1.3-3,3-3S224.4,112.5,224.4,114.2z"/>
							<path class="st4" d="M224,112.8c0,1.7-1.3,3-3,3s-3-1.3-3-3s1.3-3,3-3S224,111.2,224,112.8z"/>
							<path class="st4" d="M224.1,111.6c0,1.7-1.3,3-3,3s-3-1.3-3-3s1.3-3,3-3S224.1,109.9,224.1,111.6z"/>
							<path class="st4" d="M229.2,110.2c0,1.7-1.3,3-3,3s-3-1.3-3-3s1.3-3,3-3S229.2,108.6,229.2,110.2z"/>
							<path class="st4" d="M235.2,108.9c0,1.7-1.3,3-3,3s-3-1.3-3-3s1.3-3,3-3S235.2,107.3,235.2,108.9z"/>
							<path class="st4" d="M237.2,107.6c0,1.7-1.3,3-3,3s-3-1.3-3-3s1.3-3,3-3S237.2,106,237.2,107.6z"/>
							<path class="st4" d="M232.2,106.3c0,1.7-1.3,3-3,3s-3-1.3-3-3s1.3-3,3-3S232.2,104.7,232.2,106.3z"/>
							<path class="st4" d="M238.4,105c0,1.7-1.3,3-3,3s-3-1.3-3-3s1.3-3,3-3S238.4,103.3,238.4,105z"/>
							<path class="st4" d="M237.9,103.7c0,1.7-1.3,3-3,3s-3-1.3-3-3s1.3-3,3-3S237.9,102,237.9,103.7z"/>
							<path class="st4" d="M251.9,102.4c0,1.7-1.3,3-3,3s-3-1.3-3-3s1.3-3,3-3S251.9,100.7,251.9,102.4z"/>
							<path class="st4" d="M263.7,101.1c0,1.7-1.3,3-3,3s-3-1.3-3-3s1.3-3,3-3S263.7,99.4,263.7,101.1z"/>
							<path class="st4" d="M262.7,99.8c0,1.7-1.3,3-3,3s-3-1.3-3-3s1.3-3,3-3S262.7,98.1,262.7,99.8z"/>
							<path class="st4" d="M266.4,98.5c0,1.7-1.3,3-3,3s-3-1.3-3-3s1.3-3,3-3S266.4,96.8,266.4,98.5z"/>
							<path class="st4" d="M268.1,97.2c0,1.7-1.3,3-3,3s-3-1.3-3-3s1.3-3,3-3S268.1,95.5,268.1,97.2z"/>
							<path class="st4" d="M271.9,95.8c0,1.7-1.3,3-3,3s-3-1.3-3-3s1.3-3,3-3S271.9,94.2,271.9,95.8z"/>
							<path class="st4" d="M271.6,92.8c0,1.7-1.3,3-3,3s-3-1.3-3-3s1.3-3,3-3S271.6,91.1,271.6,92.8z"/>
							<path class="st4" d="M271.2,89.7c0,1.7-1.3,3-3,3s-3-1.3-3-3s1.3-3,3-3S271.2,88,271.2,89.7z"/>
							<path class="st4" d="M269.4,86.6c0,1.7-1.3,3-3,3s-3-1.3-3-3s1.3-3,3-3S269.4,85,269.4,86.6z"/>
							<path class="st4" d="M265.4,83.6c0,1.7-1.3,3-3,3s-3-1.3-3-3s1.3-3,3-3S265.4,81.9,265.4,83.6z"/>
							<path class="st4" d="M275.3,80.5c0,1.7-1.3,3-3,3s-3-1.3-3-3s1.3-3,3-3S275.3,78.8,275.3,80.5z"/>
							<path class="st4" d="M282.4,77.4c0,1.7-1.3,3-3,3s-3-1.3-3-3s1.3-3,3-3S282.4,75.8,282.4,77.4z"/>
							<path class="st4" d="M288,74.4c0,1.7-1.3,3-3,3s-3-1.3-3-3s1.3-3,3-3S288,72.7,288,74.4z"/>
							<path class="st4" d="M288,71.3c0,1.7-1.3,3-3,3s-3-1.3-3-3s1.3-3,3-3S288,69.6,288,71.3z"/>
							<path class="st4" d="M286.4,68.2c0,1.7-1.3,3-3,3s-3-1.3-3-3s1.3-3,3-3S286.4,66.6,286.4,68.2z"/>
							<path class="st4" d="M282.8,65.2c0,1.7-1.3,3-3,3s-3-1.3-3-3s1.3-3,3-3S282.8,63.5,282.8,65.2z"/>
							<path class="st4" d="M284.8,62.1c0,1.7-1.3,3-3,3s-3-1.3-3-3s1.3-3,3-3S284.8,60.4,284.8,62.1z"/>
							<path class="st4" d="M293.2,59c0,1.7-1.3,3-3,3s-3-1.3-3-3s1.3-3,3-3S293.2,57.4,293.2,59z"/>
							<path class="st4" d="M303,56c0,1.7-1.3,3-3,3s-3-1.3-3-3s1.3-3,3-3S303,54.3,303,56z"/>
							<path class="st4" d="M315.1,52.9c0,1.7-1.3,3-3,3s-3-1.3-3-3s1.3-3,3-3S315.1,51.2,315.1,52.9z"/>
							<path class="st4" d="M314.1,49.8c0,1.7-1.3,3-3,3s-3-1.3-3-3s1.3-3,3-3S314.1,48.2,314.1,49.8z"/>
							<path class="st4" d="M311.8,46.8c0,1.7-1.3,3-3,3s-3-1.3-3-3s1.3-3,3-3S311.8,45.1,311.8,46.8z"/>
							<path class="st4" d="M302.8,54c0,1.7-1.3,3-3,3s-3-1.3-3-3s1.3-3,3-3S302.8,52.4,302.8,54z"/>
							<path class="st4" d="M300.3,61.3c0,1.7-1.3,3-3,3s-3-1.3-3-3s1.3-3,3-3S300.3,59.6,300.3,61.3z"/>
							<path class="st4" d="M315.4,68.6c0,1.7-1.3,3-3,3s-3-1.3-3-3s1.3-3,3-3S315.4,66.9,315.4,68.6z"/>
							<path class="st4" d="M321.4,75.8c0,1.7-1.3,3-3,3s-3-1.3-3-3s1.3-3,3-3S321.4,74.2,321.4,75.8z"/>
							<path class="st4" d="M329.9,83.1c0,1.7-1.3,3-3,3s-3-1.3-3-3s1.3-3,3-3S329.9,81.5,329.9,83.1z"/>
							<path class="st4" d="M330.8,90.4c0,1.7-1.3,3-3,3s-3-1.3-3-3s1.3-3,3-3S330.8,88.7,330.8,90.4z"/>
							<path class="st4" d="M341.1,97.7c0,1.7-1.3,3-3,3s-3-1.3-3-3s1.3-3,3-3S341.1,96,341.1,97.7z"/>
							<path class="st4" d="M349.6,104.9c0,1.7-1.3,3-3,3s-3-1.3-3-3s1.3-3,3-3S349.6,103.3,349.6,104.9z"/>
							<path class="st4" d="M345,112.2c0,1.7-1.3,3-3,3s-3-1.3-3-3s1.3-3,3-3S345,110.5,345,112.2z"/>
							<path class="st4" d="M342.5,112.6c0,1.7-1.3,3-3,3s-3-1.3-3-3s1.3-3,3-3S342.5,110.9,342.5,112.6z"/>
							<path class="st4" d="M347.1,113c0,1.7-1.3,3-3,3s-3-1.3-3-3s1.3-3,3-3S347.1,111.3,347.1,113z"/>
							<path class="st4" d="M341.9,113.4c0,1.7-1.3,3-3,3s-3-1.3-3-3s1.3-3,3-3S341.9,111.7,341.9,113.4z"/>
							<path class="st4" d="M341.1,113.8c0,1.7-1.3,3-3,3s-3-1.3-3-3s1.3-3,3-3S341.1,112.1,341.1,113.8z"/>
							<path class="st4" d="M346.8,114.2c0,1.7-1.3,3-3,3s-3-1.3-3-3s1.3-3,3-3S346.8,112.5,346.8,114.2z"/>
							<path class="st4" d="M353.4,114.6c0,1.7-1.3,3-3,3s-3-1.3-3-3s1.3-3,3-3S353.4,112.9,353.4,114.6z"/>
							<path class="st4" d="M356.1,114.9c0,1.7-1.3,3-3,3s-3-1.3-3-3s1.3-3,3-3S356.1,113.3,356.1,114.9z"/>
							<path class="st4" d="M342.5,115.3c0,1.7-1.3,3-3,3s-3-1.3-3-3s1.3-3,3-3S342.5,113.7,342.5,115.3z"/>
							<path class="st4" d="M346.2,115.7c0,1.7-1.3,3-3,3s-3-1.3-3-3s1.3-3,3-3S346.2,114.1,346.2,115.7z"/>
							<path class="st4" d="M352.2,116.1c0,1.7-1.3,3-3,3s-3-1.3-3-3s1.3-3,3-3S352.2,114.5,352.2,116.1z"/>
							<path class="st4" d="M357.9,116.5c0,1.7-1.3,3-3,3s-3-1.3-3-3s1.3-3,3-3S357.9,114.9,357.9,116.5z"/>
							<path class="st4" d="M360.9,116.9c0,1.7-1.3,3-3,3s-3-1.3-3-3s1.3-3,3-3S360.9,115.3,360.9,116.9z"/>
							<path class="st4" d="M369.9,122c0,1.7-1.3,3-3,3s-3-1.3-3-3s1.3-3,3-3S369.9,120.4,369.9,122z"/>
							<path class="st4" d="M370.2,132.4c0,1.7-1.3,3-3,3s-3-1.3-3-3s1.3-3,3-3S370.2,130.8,370.2,132.4z"/>
							<path class="st4" d="M389.5,142.8c0,1.7-1.3,3-3,3s-3-1.3-3-3s1.3-3,3-3S389.5,141.2,389.5,142.8z"/>
							<path class="st4" d="M394.4,153.2c0,1.7-1.3,3-3,3s-3-1.3-3-3s1.3-3,3-3S394.4,151.6,394.4,153.2z"/>
							<path class="st4" d="M396.2,163.7c0,1.7-1.3,3-3,3s-3-1.3-3-3s1.3-3,3-3S396.2,162,396.2,163.7z"/>
							<path class="st4" d="M398.2,174.1c0,1.7-1.3,3-3,3s-3-1.3-3-3s1.3-3,3-3S398.2,172.4,398.2,174.1z"/>
							<path class="st4" d="M367.1,184.5c0,1.7-1.3,3-3,3s-3-1.3-3-3s1.3-3,3-3S367.1,182.8,367.1,184.5z"/>
							<path class="st4" d="M348.4,194.9c0,1.7-1.3,3-3,3s-3-1.3-3-3s1.3-3,3-3S348.4,193.2,348.4,194.9z"/>
							<path class="st4" d="M341.8,205.3c0,1.7-1.3,3-3,3s-3-1.3-3-3s1.3-3,3-3S341.8,203.7,341.8,205.3z"/>
							<path class="st4" d="M353.7,215.7c0,1.7-1.3,3-3,3s-3-1.3-3-3s1.3-3,3-3S353.7,214.1,353.7,215.7z"/>
							<path class="st4" d="M360.8,226.1c0,1.7-1.3,3-3,3s-3-1.3-3-3s1.3-3,3-3S360.8,224.5,360.8,226.1z"/>
							<path class="st4" d="M369.9,236.6c0,1.7-1.3,3-3,3s-3-1.3-3-3s1.3-3,3-3S369.9,234.9,369.9,236.6z"/>
							<path class="st4" d="M382,316.7c0,1.7-1.3,3-3,3s-3-1.3-3-3s1.3-3,3-3S382,315.1,382,316.7z"/>
							<path class="st4" d="M370.7,374c0,1.7-1.3,3-3,3s-3-1.3-3-3s1.3-3,3-3S370.7,372.3,370.7,374z"/>
							<path class="st4" d="M390.9,378.6c0,1.7-1.3,3-3,3s-3-1.3-3-3s1.3-3,3-3S390.9,376.9,390.9,378.6z"/>
							<path class="st4" d="M393,380.9c0,1.7-1.3,3-3,3s-3-1.3-3-3s1.3-3,3-3S393,379.2,393,380.9z"/>
							<path class="st4" d="M400.4,378.6c0,1.7-1.3,3-3,3s-3-1.3-3-3s1.3-3,3-3S400.4,376.9,400.4,378.6z"/>
							<path class="st4" d="M397.2,376.3c0,1.7-1.3,3-3,3s-3-1.3-3-3s1.3-3,3-3S397.2,374.6,397.2,376.3z"/>
							<path class="st4" d="M381.7,374c0,1.7-1.3,3-3,3s-3-1.3-3-3s1.3-3,3-3S381.7,372.3,381.7,374z"/>
							<path class="st4" d="M382.2,351.1c0,1.7-1.3,3-3,3s-3-1.3-3-3s1.3-3,3-3S382.2,349.4,382.2,351.1z"/>
							<path class="st4" d="M388.9,328.2c0,1.7-1.3,3-3,3s-3-1.3-3-3s1.3-3,3-3S388.9,326.5,388.9,328.2z"/>
							<path class="st4" d="M405.5,323.6c0,1.7-1.3,3-3,3s-3-1.3-3-3s1.3-3,3-3S405.5,321.9,405.5,323.6z"/>
							<path class="st4" d="M414.6,316.7c0,1.7-1.3,3-3,3s-3-1.3-3-3s1.3-3,3-3S414.6,315.1,414.6,316.7z"/>
							<path class="st4" d="M425.5,321.3c0,1.7-1.3,3-3,3s-3-1.3-3-3s1.3-3,3-3S425.5,319.7,425.5,321.3z"/>
							<path class="st4" d="M433.6,325.9c0,1.7-1.3,3-3,3s-3-1.3-3-3s1.3-3,3-3S433.6,324.2,433.6,325.9z"/>
							<path class="st4" d="M435.7,328.2c0,1.7-1.3,3-3,3s-3-1.3-3-3s1.3-3,3-3S435.7,326.5,435.7,328.2z"/>
							<path class="st4" d="M435.5,348.2c0,1.7-1.3,3-3,3s-3-1.3-3-3s1.3-3,3-3S435.5,346.6,435.5,348.2z"/>
							<path class="st4" d="M460.2,368.3c0,1.7-1.3,3-3,3s-3-1.3-3-3s1.3-3,3-3S460.2,366.6,460.2,368.3z"/>
							<path class="st4" d="M484,388.3c0,1.7-1.3,3-3,3s-3-1.3-3-3s1.3-3,3-3S484,386.7,484,388.3z"/>
							<path class="st4" d="M489.6,408.4c0,1.7-1.3,3-3,3s-3-1.3-3-3s1.3-3,3-3S489.6,406.7,489.6,408.4z"/>
							<path class="st4" d="M493.3,428.4c0,1.7-1.3,3-3,3s-3-1.3-3-3s1.3-3,3-3S493.3,426.7,493.3,428.4z"/>
							<path class="st4" d="M481.2,448.5c0,1.7-1.3,3-3,3s-3-1.3-3-3s1.3-3,3-3S481.2,446.8,481.2,448.5z"/>
							<path class="st4" d="M468,468.5c0,1.7-1.3,3-3,3s-3-1.3-3-3s1.3-3,3-3S468,466.8,468,468.5z"/>
							<path class="st4" d="M455.8,488.5c0,1.7-1.3,3-3,3s-3-1.3-3-3s1.3-3,3-3S455.8,486.9,455.8,488.5z"/>
							<path class="st4" d="M450,508.6c0,1.7-1.3,3-3,3s-3-1.3-3-3s1.3-3,3-3S450,506.9,450,508.6z"/>
							<path class="st4" d="M455.8,528.6c0,1.7-1.3,3-3,3s-3-1.3-3-3s1.3-3,3-3S455.8,527,455.8,528.6z"/>
							<path class="st4" d="M464.1,548.7c0,1.7-1.3,3-3,3s-3-1.3-3-3s1.3-3,3-3S464.1,547,464.1,548.7z"/>
							<path class="st4" d="M463.5,568.7c0,1.7-1.3,3-3,3s-3-1.3-3-3s1.3-3,3-3S463.5,567.1,463.5,568.7z"/>
							<path class="st4" d="M470.6,574c0,1.7-1.3,3-3,3s-3-1.3-3-3s1.3-3,3-3S470.6,572.4,470.6,574z"/>
							<path class="st4" d="M469.4,579.4c0,1.7-1.3,3-3,3s-3-1.3-3-3s1.3-3,3-3S469.4,577.7,469.4,579.4z"/>
							<path class="st4" d="M479,584.7c0,1.7-1.3,3-3,3s-3-1.3-3-3s1.3-3,3-3S479,583.1,479,584.7z"/>
							<path class="st4" d="M488.9,590c0,1.7-1.3,3-3,3s-3-1.3-3-3s1.3-3,3-3S488.9,588.4,488.9,590z"/>
							<path class="st4" d="M497.7,595.4c0,1.7-1.3,3-3,3s-3-1.3-3-3s1.3-3,3-3S497.7,593.7,497.7,595.4z"/>
							<path class="st4" d="M499.8,600.7c0,1.7-1.3,3-3,3s-3-1.3-3-3s1.3-3,3-3S499.8,599.1,499.8,600.7z"/>
							<path class="st4" d="M502.8,606.1c0,1.7-1.3,3-3,3s-3-1.3-3-3s1.3-3,3-3S502.8,604.4,502.8,606.1z"/>
							<path class="st4" d="M501,611.4c0,1.7-1.3,3-3,3s-3-1.3-3-3s1.3-3,3-3S501,609.7,501,611.4z"/>
							<path class="st4" d="M510.2,616.7c0,1.7-1.3,3-3,3s-3-1.3-3-3s1.3-3,3-3S510.2,615.1,510.2,616.7z"/>
							<path class="st4" d="M523.3,622.1c0,1.7-1.3,3-3,3s-3-1.3-3-3s1.3-3,3-3S523.3,620.4,523.3,622.1z"/>
							<path class="st4" d="M529.9,627.4c0,1.7-1.3,3-3,3s-3-1.3-3-3s1.3-3,3-3S529.9,625.7,529.9,627.4z"/>
							<path class="st4" d="M530.2,632.7c0,1.7-1.3,3-3,3s-3-1.3-3-3s1.3-3,3-3S530.2,631.1,530.2,632.7z"/>
							<path class="st4" d="M538.8,638.1c0,1.7-1.3,3-3,3s-3-1.3-3-3s1.3-3,3-3S538.8,636.4,538.8,638.1z"/>
							<path class="st4" d="M550.9,643.4c0,1.7-1.3,3-3,3s-3-1.3-3-3s1.3-3,3-3S550.9,641.8,550.9,643.4z"/>
							<path class="st4" d="M556.1,648.7c0,1.7-1.3,3-3,3s-3-1.3-3-3s1.3-3,3-3S556.1,647.1,556.1,648.7z"/>
							<path class="st4" d="M559.8,654.1c0,1.7-1.3,3-3,3s-3-1.3-3-3s1.3-3,3-3S559.8,652.4,559.8,654.1z"/>
							<path class="st4" d="M564.3,659.4c0,1.7-1.3,3-3,3s-3-1.3-3-3s1.3-3,3-3S564.3,657.8,564.3,659.4z"/>
							<path class="st4" d="M573.9,664.8c0,1.7-1.3,3-3,3s-3-1.3-3-3s1.3-3,3-3S573.9,663.1,573.9,664.8z"/>
							<path class="st4" d="M577.6,670.1c0,1.7-1.3,3-3,3s-3-1.3-3-3s1.3-3,3-3S577.6,668.4,577.6,670.1z"/>
							<path class="st4" d="M583.1,675.4c0,1.7-1.3,3-3,3s-3-1.3-3-3s1.3-3,3-3S583.1,673.8,583.1,675.4z"/>
							<path class="st4" d="M587.5,680.8c0,1.7-1.3,3-3,3s-3-1.3-3-3s1.3-3,3-3S587.5,679.1,587.5,680.8z"/>
							<path class="st4" d="M596.1,686.1c0,1.7-1.3,3-3,3s-3-1.3-3-3s1.3-3,3-3S596.1,684.4,596.1,686.1z"/>
							<path class="st4" d="M613.2,691.4c0,1.7-1.3,3-3,3s-3-1.3-3-3s1.3-3,3-3S613.2,689.8,613.2,691.4z"/>
							<path class="st4" d="M609.4,696.8c0,1.7-1.3,3-3,3s-3-1.3-3-3s1.3-3,3-3S609.4,695.1,609.4,696.8z"/>
							<path class="st4" d="M609.1,702.1c0,1.7-1.3,3-3,3s-3-1.3-3-3s1.3-3,3-3S609.1,700.4,609.1,702.1z"/>
							<path class="st4" d="M615.2,707.4c0,1.7-1.3,3-3,3s-3-1.3-3-3s1.3-3,3-3S615.2,705.8,615.2,707.4z"/>
							<path class="st4" d="M621.2,712.8c0,1.7-1.3,3-3,3s-3-1.3-3-3s1.3-3,3-3S621.2,711.1,621.2,712.8z"/>
							<path class="st4" d="M630.8,718.1c0,1.7-1.3,3-3,3s-3-1.3-3-3s1.3-3,3-3S630.8,716.4,630.8,718.1z"/>
							<path class="st4" d="M637.9,723.4c0,1.7-1.3,3-3,3s-3-1.3-3-3s1.3-3,3-3S637.9,721.8,637.9,723.4z"/>
							<path class="st4" d="M633,728.8c0,1.7-1.3,3-3,3s-3-1.3-3-3s1.3-3,3-3S633,727.1,633,728.8z"/>
							<path class="st4" d="M629.1,734.1c0,1.7-1.3,3-3,3s-3-1.3-3-3s1.3-3,3-3S629.1,732.5,629.1,734.1z"/>
							<path class="st4" d="M633.5,739.4c0,1.7-1.3,3-3,3s-3-1.3-3-3s1.3-3,3-3S633.5,737.8,633.5,739.4z"/>
							<path class="st4" d="M642.8,744.8c0,1.7-1.3,3-3,3s-3-1.3-3-3s1.3-3,3-3S642.8,743.1,642.8,744.8z"/>
							<path class="st4" d="M649.1,750.1c0,1.7-1.3,3-3,3s-3-1.3-3-3s1.3-3,3-3S649.1,748.5,649.1,750.1z"/>
							<path class="st4" d="M657.8,755.5c0,1.7-1.3,3-3,3s-3-1.3-3-3s1.3-3,3-3S657.8,753.8,657.8,755.5z"/>
							<path class="st4" d="M668.6,760.8c0,1.7-1.3,3-3,3s-3-1.3-3-3s1.3-3,3-3S668.6,759.1,668.6,760.8z"/>
							<path class="st4" d="M680.4,766.1c0,1.7-1.3,3-3,3s-3-1.3-3-3s1.3-3,3-3S680.4,764.5,680.4,766.1z"/>
							<path class="st4" d="M692.8,771.5c0,1.7-1.3,3-3,3s-3-1.3-3-3s1.3-3,3-3S692.8,769.8,692.8,771.5z"/>
							<path class="st4" d="M697.9,776.8c0,1.7-1.3,3-3,3s-3-1.3-3-3s1.3-3,3-3S697.9,775.1,697.9,776.8z"/>
							<path class="st4" d="M698.2,782.1c0,1.7-1.3,3-3,3s-3-1.3-3-3s1.3-3,3-3S698.2,780.5,698.2,782.1z"/>
							<path class="st4" d="M694.3,787.5c0,1.7-1.3,3-3,3s-3-1.3-3-3s1.3-3,3-3S694.3,785.8,694.3,787.5z"/>
							<path class="st4" d="M694.5,792.8c0,1.7-1.3,3-3,3s-3-1.3-3-3s1.3-3,3-3S694.5,791.1,694.5,792.8z"/>
							<path class="st4" d="M700.6,798.1c0,1.7-1.3,3-3,3s-3-1.3-3-3s1.3-3,3-3S700.6,796.5,700.6,798.1z"/>
							<path class="st4" d="M710.3,799.4c0,1.7-1.3,3-3,3s-3-1.3-3-3s1.3-3,3-3S710.3,797.7,710.3,799.4z"/>
							<path class="st4" d="M716.3,799.4c0,1.7-1.3,3-3,3s-3-1.3-3-3s1.3-3,3-3S716.3,797.7,716.3,799.4z"/>
							<path class="st4" d="M722.5,799.4c0,1.7-1.3,3-3,3s-3-1.3-3-3s1.3-3,3-3S722.5,797.7,722.5,799.4z"/>
							<path class="st4" d="M730.1,800.7c0,1.7-1.3,3-3,3s-3-1.3-3-3s1.3-3,3-3S730.1,799,730.1,800.7z"/>
							<path class="st4" d="M737.9,800.7c0,1.7-1.3,3-3,3s-3-1.3-3-3s1.3-3,3-3S737.9,799,737.9,800.7z"/>
							<path class="st4" d="M745.8,800.7c0,1.7-1.3,3-3,3s-3-1.3-3-3s1.3-3,3-3S745.8,799,745.8,800.7z"/>
							<path class="st4" d="M754.8,800.7c0,1.7-1.3,3-3,3s-3-1.3-3-3s1.3-3,3-3S754.8,799,754.8,800.7z"/>
							<path class="st4" d="M761.1,802.9c0,1.7-1.3,3-3,3s-3-1.3-3-3s1.3-3,3-3S761.1,801.2,761.1,802.9z"/>
							<path class="st4" d="M766.4,803.2c0,1.7-1.3,3-3,3s-3-1.3-3-3s1.3-3,3-3S766.4,801.5,766.4,803.2z"/>
							<path class="st4" d="M774.4,800.9c0,1.7-1.3,3-3,3s-3-1.3-3-3s1.3-3,3-3S774.4,799.3,774.4,800.9z"/>
							<path class="st4" d="M779.7,804.4c0,1.7-1.3,3-3,3s-3-1.3-3-3s1.3-3,3-3S779.7,802.7,779.7,804.4z"/>
							<path class="st4" d="M785.8,804c0,1.7-1.3,3-3,3s-3-1.3-3-3s1.3-3,3-3S785.8,802.3,785.8,804z"/>
							<path class="st4" d="M790.5,802.1c0,1.7-1.3,3-3,3s-3-1.3-3-3s1.3-3,3-3S790.5,800.5,790.5,802.1z"/>
							<path class="st4" d="M795.2,805c0,1.7-1.3,3-3,3s-3-1.3-3-3s1.3-3,3-3S795.2,803.3,795.2,805z"/>
							<path class="st4" d="M791.4,808.5c0,1.7-1.3,3-3,3s-3-1.3-3-3s1.3-3,3-3S791.4,806.8,791.4,808.5z"/>
							<path class="st4" d="M777.3,808.2c0,1.7-1.3,3-3,3s-3-1.3-3-3s1.3-3,3-3S777.3,806.6,777.3,808.2z"/>
							<path class="st4" d="M780.3,807c0,1.7-1.3,3-3,3s-3-1.3-3-3s1.3-3,3-3S780.3,805.3,780.3,807z"/>
							<path class="st4" d="M782.3,807c0,1.7-1.3,3-3,3s-3-1.3-3-3s1.3-3,3-3S782.3,805.3,782.3,807z"/>
							<path class="st4" d="M783.9,810.7c0,1.7-1.3,3-3,3s-3-1.3-3-3s1.3-3,3-3S783.9,809.1,783.9,810.7z"/>
							<path class="st4" d="M787.2,810.7c0,1.7-1.3,3-3,3s-3-1.3-3-3s1.3-3,3-3S787.2,809.1,787.2,810.7z"/>
							<path class="st4" d="M793.4,810.7c0,1.7-1.3,3-3,3s-3-1.3-3-3s1.3-3,3-3S793.4,809.1,793.4,810.7z"/>
							<path class="st4" d="M797.2,813.2c0,1.7-1.3,3-3,3s-3-1.3-3-3s1.3-3,3-3S797.2,811.6,797.2,813.2z"/>
						</g>
					</g>
					<g>
						<g>
							<path class="st5" d="M45.8,504.9L78,439.5l-1.3-57.3l18.8-20.4l39.2-20.5l1.4-8.5l-8.9-4.3l-4-4.2l12-4.3l-5-4.2l13.5-4.3
								l-16.6-4.2l4.9-4.2l13.6-4.3l-6.4-4.2l-15.6-4.3l10.1-4.2l-10.4-4.2l23.2-4.3l-19.2-4.2l0.2-4.3l-4.4-4.2l-8.4-4.3l17.2-4.2
								l0.1-4.2l0.7-4.3l3.6-4.2l10.5-4.3l2.3-4.2l-18.6-4.3l16.7-4.2l-3-4.2l-1.4-4.3l8.4-4.2l-0.4-4.3l5.1-4.2l-1-4.3l3-4.2
								l16.1-4.2l5.3-4.3l-5.6-4.2l7.3-4.3l-5.6-4.2l9.4-4.3l-8.6-4.2l-6.1-4.2l9.9-4.3l19.7-4.2l8.9-4.3l-3.3-4.2l-6.4-4.2l8-4.3
								l3.8-4.2l-47.5-4.3l13.8-1.3l3.3-1.3l8.1-1.3l5-1.3l-3.3-1.3l19.1-2.6l-1.5-1.3l13.7-3.9l-0.4-1.3l0-1.3l5.1-1.3l8-2.6
								l-5-1.3l6.2-1.3l-0.5-1.3l25.8-2.6l-1-1.3l9.2-3.9l-0.3-3.1l-0.4-3.1l-1.8-3.1l-4-3.1l9.9-3.1l12.7-6.1l0-3.1l-1.6-3.1
								l-3.6-3.1l2-3.1l8.4-3.1l21.9-6.1l-1-3.1l-2.3-3.1l-9,7.3l-2.5,7.3l15.2,7.3l5.9,7.3l8.5,7.3l1,7.3l10.3,7.3l8.4,7.3
								l-4.5,7.3l2,0.8l-5.9,0.8l5.6,0.4l9.4,0.8l-13.7,0.4l18.5,1.6l8.9,5.1l0.3,10.4l19.3,10.4l4.9,10.4l1.8,10.4l1.9,10.4
								l-31.1,10.4l-18.7,10.4l-6.6,10.4l11.9,10.4l7.1,10.4l9.1,10.4l12.1,80.2L367.7,374l20.1,4.6l2.2,2.3l7.3-2.3l-3.1-2.3
								l-15.6-2.3l0.5-22.9l6.7-22.9l16.5-4.6l9.1-6.9l19,9.2l2.1,2.3l-0.2,20.1l24.7,20l23.8,20.1l5.7,20l3.7,20l-12.2,20.1
								l-25.4,40.1l-5.8,20l5.8,20l8.4,20l-0.6,20l7.1,5.3l-1.2,5.3l9.6,5.3l18.7,10.7l2.1,5.3l3,5.3l-1.7,5.3l9.2,5.3l13.1,5.3
								l6.6,5.3l0.3,5.3l8.6,5.3l12.2,5.3l8.9,10.7l4.5,5.3l9.6,5.3l3.7,5.3l9.9,10.7l8.6,5.3l17.1,5.3l-3.8,5.3l-0.3,5.3l6.1,5.3
								l6,5.3l9.6,5.3l7.1,5.3l-4.9,5.3l-3.9,5.3l4.4,5.3l9.3,5.3l6.3,5.3l19.6,10.7l11.8,5.3l12.4,5.3l5.1,5.3l0.3,5.3l-3.9,5.3
								l0.2,5.3l6.1,5.3l15.7,1.3h6.2l7.7,1.3h7.8h16.9l6.3,2.2l5.3,0.3l8-2.2l5.2,3.5l6.1-0.4l4.7-1.8l4.8,2.8l-3.9,3.5l-14.1-0.2
								l5-1.3l1.7,3.8h9.5l3.8,2.5"/>
						</g>
					</g>
				</g>
			</g>
		</g>
		<path class="st6" d="M0,0"/>
		<path class="st6" d="M0,0"/>
		<g>
			<g>
				<text transform="matrix(1 0 0 1 176.3592 930)" class="st7 st8 st9">3</text>
			</g>
			<g>
				<text transform="matrix(1 0 0 1 254.6891 930)" class="st7 st8 st9">4</text>
			</g>
			<g>
				<text transform="matrix(1 0 0 1 315.4492 930)" class="st7 st8 st9">5</text>
			</g>
			<g>
				<text transform="matrix(1 0 0 1 365.0892 930)" class="st7 st8 st9">6</text>
			</g>
			<g>
				<text transform="matrix(1 0 0 1 407.0692 930)" class="st7 st8 st9">7</text>
			</g>
			<g>
				<text transform="matrix(1 0 0 1 443.4292 930)" class="st7 st8 st9">8</text>
			</g>
			<g>
				<text transform="matrix(1 0 0 1 475.4991 930)" class="st7 st8 st9">9</text>
			</g>
			<g>
				<text transform="matrix(1 0 0 1 498.8703 939)" class="st7 st8 st10">10k</text>
			</g>
			<g>
				<text transform="matrix(1 0 0 1 692.9192 930)" class="st7 st8 st9">2</text>
			</g>
			<g>
				<text transform="matrix(1 0 0 1 803.3292 930)" class="st7 st8 st9">3</text>
			</g>
			<g>
				<text transform="matrix(1 0 0 1 881.6592 930)" class="st7 st8 st9">4</text>
			</g>
		</g>
		<g>
			<g>
				<text transform="matrix(1 0 0 1 71.3711 896.35)" class="st7 st8 st9">0</text>
			</g>
			<g>
				<text transform="matrix(1 0 0 1 56.1133 770.36)" class="st7 st8 st9">100</text>
			</g>
			<g>
				<text transform="matrix(1 0 0 1 56.1133 644.37)" class="st7 st8 st9">200</text>
			</g>
			<g>
				<text transform="matrix(1 0 0 1 56.1133 518.38)" class="st7 st8 st9">300</text>
			</g>
			<g>
				<text transform="matrix(1 0 0 1 56.1133 392.38)" class="st7 st8 st9">400</text>
			</g>
			<g>
				<text transform="matrix(1 0 0 1 56.1133 266.39)" class="st7 st8 st9">500</text>
			</g>
			<g>
				<text transform="matrix(1 0 0 1 56.1133 140.4)" class="st7 st8 st9">600</text>
			</g>
		</g>
	</g>
</g>
<g>
	<g>
		<text transform="matrix(1 0 0 1 49.8076 52.6041)" class="st7 st11 st12">Air Pollution vs GDP Per Capita in London (1700-2015)</text>
	</g>
	<g>
		<text transform="matrix(1 0 0 1 345.9991 976.2908)" class="st7 st11 st13">GDP per capita (int.-$)</text>
	</g>
	<g>
		<text transform="matrix(6.123234e-17 -1 1 6.123234e-17 31.3094 715.5762)" class="st7 st11 st13">Suspended particulate matter (SPM)</text>
	</g>
</g>
</svg>
