<?xml version="1.0" encoding="utf-8" standalone="no"?>
<!DOCTYPE svg PUBLIC "-//W3C//DTD SVG 1.1//EN"
  "http://www.w3.org/Graphics/SVG/1.1/DTD/svg11.dtd">
<svg xmlns:xlink="http://www.w3.org/1999/xlink" width="1440pt" height="720pt" viewBox="0 0 1440 720" xmlns="http://www.w3.org/2000/svg" version="1.1">
 <metadata>
  <rdf:RDF xmlns:dc="http://purl.org/dc/elements/1.1/" xmlns:cc="http://creativecommons.org/ns#" xmlns:rdf="http://www.w3.org/1999/02/22-rdf-syntax-ns#">
   <cc:Work>
    <dc:type rdf:resource="http://purl.org/dc/dcmitype/StillImage"/>
    <dc:date>2023-03-10T00:05:36.840390</dc:date>
    <dc:format>image/svg+xml</dc:format>
    <dc:creator>
     <cc:Agent>
      <dc:title>Matplotlib v3.6.1, https://matplotlib.org/</dc:title>
     </cc:Agent>
    </dc:creator>
   </cc:Work>
  </rdf:RDF>
 </metadata>
 <defs>
  <style type="text/css">*{stroke-linejoin: round; stroke-linecap: butt}</style>
 </defs>
 <g id="figure_1">
  <g id="patch_1">
   <path d="M 0 720 
L 1440 720 
L 1440 0 
L 0 0 
z
" style="fill: #ffffff"/>
  </g>
  <g id="axes_1">
   <g id="patch_2">
    <path d="M 180 640.8 
L 1296 640.8 
L 1296 86.4 
L 180 86.4 
z
" style="fill: #eaeaf2"/>
   </g>
   <g id="matplotlib.axis_1">
    <g id="xtick_1">
     <g id="text_1">
      <!-- STP3_1_SI -->
      <g style="fill: #262626" transform="translate(227.295097 734.17789) rotate(-45) scale(0.22 -0.22)">
       <defs>
        <path id="Avenir-Book-53" d="M 2758 3782 
Q 2458 4224 1882 4224 
Q 1702 4224 1529 4176 
Q 1357 4128 1219 4029 
Q 1082 3930 998 3773 
Q 915 3616 915 3405 
Q 915 3098 1088 2928 
Q 1261 2758 1517 2649 
Q 1773 2541 2077 2454 
Q 2381 2368 2637 2224 
Q 2893 2080 3065 1843 
Q 3238 1606 3238 1197 
Q 3238 890 3107 643 
Q 2976 397 2761 230 
Q 2547 64 2281 -25 
Q 2016 -115 1747 -115 
Q 1331 -115 956 41 
Q 582 198 320 557 
L 736 858 
Q 883 608 1145 457 
Q 1408 307 1766 307 
Q 1939 307 2112 361 
Q 2285 416 2422 521 
Q 2560 627 2649 780 
Q 2739 934 2739 1133 
Q 2739 1370 2640 1526 
Q 2541 1683 2377 1788 
Q 2214 1894 2006 1964 
Q 1798 2035 1577 2105 
Q 1357 2176 1149 2265 
Q 941 2355 777 2492 
Q 614 2630 515 2838 
Q 416 3046 416 3360 
Q 416 3686 541 3929 
Q 666 4173 874 4333 
Q 1082 4493 1344 4569 
Q 1606 4646 1882 4646 
Q 2266 4646 2579 4524 
Q 2893 4403 3162 4096 
L 2758 3782 
z
" transform="scale(0.015625)"/>
        <path id="Avenir-Book-54" d="M 2067 0 
L 1606 0 
L 1606 4109 
L 90 4109 
L 90 4531 
L 3584 4531 
L 3584 4109 
L 2067 4109 
L 2067 0 
z
" transform="scale(0.015625)"/>
        <path id="Avenir-Book-50" d="M 1075 2528 
L 1818 2528 
Q 2125 2528 2339 2592 
Q 2554 2656 2682 2761 
Q 2810 2867 2867 3011 
Q 2925 3155 2925 3322 
Q 2925 3482 2867 3626 
Q 2810 3770 2682 3878 
Q 2554 3987 2339 4048 
Q 2125 4109 1818 4109 
L 1075 4109 
L 1075 2528 
z
M 614 4531 
L 1933 4531 
Q 2624 4531 3024 4230 
Q 3424 3930 3424 3322 
Q 3424 2714 3024 2410 
Q 2624 2106 1933 2106 
L 1075 2106 
L 1075 0 
L 614 0 
L 614 4531 
z
" transform="scale(0.015625)"/>
        <path id="Avenir-Book-33" d="M 1306 2586 
L 1542 2586 
Q 1741 2586 1923 2630 
Q 2106 2675 2240 2774 
Q 2374 2874 2454 3034 
Q 2534 3194 2534 3418 
Q 2534 3782 2313 3984 
Q 2093 4186 1696 4186 
Q 1408 4186 1190 4058 
Q 973 3930 832 3686 
L 429 3891 
Q 634 4256 950 4432 
Q 1267 4608 1683 4608 
Q 1952 4608 2189 4531 
Q 2426 4454 2605 4304 
Q 2784 4154 2889 3933 
Q 2995 3712 2995 3430 
Q 2995 3245 2934 3078 
Q 2874 2912 2768 2777 
Q 2662 2643 2521 2544 
Q 2381 2445 2227 2394 
L 2246 2381 
Q 2438 2342 2598 2236 
Q 2758 2131 2873 1977 
Q 2989 1824 3053 1632 
Q 3117 1440 3117 1229 
Q 3117 915 3001 672 
Q 2886 429 2688 262 
Q 2490 96 2227 9 
Q 1965 -77 1670 -77 
Q 1171 -77 800 140 
Q 429 358 243 838 
L 730 986 
Q 845 659 1072 502 
Q 1299 346 1709 346 
Q 1901 346 2073 410 
Q 2246 474 2377 592 
Q 2509 710 2582 876 
Q 2656 1043 2656 1242 
Q 2656 1498 2560 1674 
Q 2464 1850 2304 1958 
Q 2144 2067 1936 2115 
Q 1728 2163 1504 2163 
L 1306 2163 
L 1306 2586 
z
" transform="scale(0.015625)"/>
        <path id="Avenir-Book-5f" d="M 0 -480 
L 3200 -480 
L 3200 -800 
L 0 -800 
L 0 -480 
z
" transform="scale(0.015625)"/>
        <path id="Avenir-Book-31" d="M 2227 0 
L 1766 0 
L 1766 3955 
L 954 3238 
L 666 3584 
L 1818 4531 
L 2227 4531 
L 2227 0 
z
" transform="scale(0.015625)"/>
        <path id="Avenir-Book-49" d="M 1075 0 
L 614 0 
L 614 4531 
L 1075 4531 
L 1075 0 
z
" transform="scale(0.015625)"/>
       </defs>
       <use xlink:href="#Avenir-Book-53"/>
       <use xlink:href="#Avenir-Book-54" x="55.599991"/>
       <use xlink:href="#Avenir-Book-50" x="112.999985"/>
       <use xlink:href="#Avenir-Book-33" x="170.399979"/>
       <use xlink:href="#Avenir-Book-5f" x="225.999969"/>
       <use xlink:href="#Avenir-Book-31" x="275.999954"/>
       <use xlink:href="#Avenir-Book-5f" x="331.599945"/>
       <use xlink:href="#Avenir-Book-53" x="381.59993"/>
       <use xlink:href="#Avenir-Book-49" x="437.199921"/>
      </g>
     </g>
    </g>
    <g id="xtick_2">
     <g id="text_2">
      <!-- STP3A_RI -->
      <g style="fill: #262626" transform="translate(389.313558 728.998112) rotate(-45) scale(0.22 -0.22)">
       <defs>
        <path id="Avenir-Book-41" d="M 1210 1613 
L 3174 1613 
L 2195 3994 
L 1210 1613 
z
M 538 0 
L 0 0 
L 1971 4531 
L 2419 4531 
L 4390 0 
L 3853 0 
L 3354 1190 
L 1037 1190 
L 538 0 
z
" transform="scale(0.015625)"/>
        <path id="Avenir-Book-52" d="M 1075 2528 
L 1894 2528 
Q 2202 2528 2416 2592 
Q 2630 2656 2758 2761 
Q 2886 2867 2944 3011 
Q 3002 3155 3002 3322 
Q 3002 3482 2944 3626 
Q 2886 3770 2758 3878 
Q 2630 3987 2416 4048 
Q 2202 4109 1894 4109 
L 1075 4109 
L 1075 2528 
z
M 1075 0 
L 614 0 
L 614 4531 
L 2010 4531 
Q 2701 4531 3101 4230 
Q 3501 3930 3501 3322 
Q 3501 2848 3203 2525 
Q 2906 2202 2342 2150 
L 3648 0 
L 3085 0 
L 1843 2106 
L 1075 2106 
L 1075 0 
z
" transform="scale(0.015625)"/>
       </defs>
       <use xlink:href="#Avenir-Book-53"/>
       <use xlink:href="#Avenir-Book-54" x="55.599991"/>
       <use xlink:href="#Avenir-Book-50" x="112.999985"/>
       <use xlink:href="#Avenir-Book-33" x="170.399979"/>
       <use xlink:href="#Avenir-Book-41" x="225.999969"/>
       <use xlink:href="#Avenir-Book-5f" x="294.59996"/>
       <use xlink:href="#Avenir-Book-52" x="344.599945"/>
       <use xlink:href="#Avenir-Book-49" x="403.899933"/>
      </g>
     </g>
    </g>
    <g id="xtick_3">
     <g id="text_3">
      <!-- STP14_4_TI -->
      <g style="fill: #262626" transform="translate(541.687082 743.108207) rotate(-45) scale(0.22 -0.22)">
       <defs>
        <path id="Avenir-Book-34" d="M 2202 4070 
L 2189 4070 
L 627 1498 
L 2202 1498 
L 2202 4070 
z
M 2662 1498 
L 3315 1498 
L 3315 1075 
L 2662 1075 
L 2662 0 
L 2202 0 
L 2202 1075 
L 243 1075 
L 243 1600 
L 2074 4531 
L 2662 4531 
L 2662 1498 
z
" transform="scale(0.015625)"/>
       </defs>
       <use xlink:href="#Avenir-Book-53"/>
       <use xlink:href="#Avenir-Book-54" x="55.599991"/>
       <use xlink:href="#Avenir-Book-50" x="112.999985"/>
       <use xlink:href="#Avenir-Book-31" x="170.399979"/>
       <use xlink:href="#Avenir-Book-34" x="225.999969"/>
       <use xlink:href="#Avenir-Book-5f" x="281.59996"/>
       <use xlink:href="#Avenir-Book-34" x="331.599945"/>
       <use xlink:href="#Avenir-Book-5f" x="387.199936"/>
       <use xlink:href="#Avenir-Book-54" x="437.199921"/>
       <use xlink:href="#Avenir-Book-49" x="494.599915"/>
      </g>
     </g>
    </g>
    <g id="xtick_4">
     <g id="text_4">
      <!-- STP14_5_TI -->
      <g style="fill: #262626" transform="translate(701.115653 743.108207) rotate(-45) scale(0.22 -0.22)">
       <defs>
        <path id="Avenir-Book-35" d="M 2976 4109 
L 1120 4109 
L 1094 2746 
Q 1242 2803 1395 2828 
Q 1549 2854 1702 2854 
Q 2022 2854 2284 2745 
Q 2547 2637 2736 2441 
Q 2925 2246 3030 1980 
Q 3136 1715 3136 1402 
Q 3136 1075 3021 803 
Q 2906 531 2701 336 
Q 2496 141 2217 32 
Q 1939 -77 1613 -77 
Q 1184 -77 838 128 
Q 493 333 307 730 
L 762 928 
Q 890 659 1120 502 
Q 1350 346 1651 346 
Q 1869 346 2054 426 
Q 2240 506 2377 640 
Q 2515 774 2595 960 
Q 2675 1146 2675 1357 
Q 2675 1594 2592 1792 
Q 2509 1990 2361 2134 
Q 2214 2278 2009 2355 
Q 1805 2432 1562 2432 
Q 1318 2432 1078 2365 
Q 838 2298 621 2182 
L 666 4531 
L 2976 4531 
L 2976 4109 
z
" transform="scale(0.015625)"/>
       </defs>
       <use xlink:href="#Avenir-Book-53"/>
       <use xlink:href="#Avenir-Book-54" x="55.599991"/>
       <use xlink:href="#Avenir-Book-50" x="112.999985"/>
       <use xlink:href="#Avenir-Book-31" x="170.399979"/>
       <use xlink:href="#Avenir-Book-34" x="225.999969"/>
       <use xlink:href="#Avenir-Book-5f" x="281.59996"/>
       <use xlink:href="#Avenir-Book-35" x="331.599945"/>
       <use xlink:href="#Avenir-Book-5f" x="387.199936"/>
       <use xlink:href="#Avenir-Book-54" x="437.199921"/>
       <use xlink:href="#Avenir-Book-49" x="494.599915"/>
      </g>
     </g>
    </g>
    <g id="xtick_5">
     <g id="text_5">
      <!-- STP19_EE_9 -->
      <g style="fill: #262626" transform="translate(857.838878 748.5189) rotate(-45) scale(0.22 -0.22)">
       <defs>
        <path id="Avenir-Book-39" d="M 2790 3206 
Q 2790 3424 2716 3603 
Q 2643 3782 2508 3910 
Q 2374 4038 2188 4112 
Q 2003 4186 1779 4186 
Q 1555 4186 1369 4112 
Q 1184 4038 1049 3910 
Q 915 3782 841 3603 
Q 768 3424 768 3206 
Q 768 2989 841 2809 
Q 915 2630 1049 2499 
Q 1184 2368 1369 2297 
Q 1555 2227 1779 2227 
Q 2003 2227 2188 2297 
Q 2374 2368 2508 2499 
Q 2643 2630 2716 2809 
Q 2790 2989 2790 3206 
z
M 2330 1946 
L 2317 1958 
Q 2208 1882 2025 1843 
Q 1843 1805 1690 1805 
Q 1395 1805 1142 1910 
Q 890 2016 704 2201 
Q 518 2387 412 2643 
Q 307 2899 307 3206 
Q 307 3520 416 3776 
Q 525 4032 723 4217 
Q 922 4403 1190 4505 
Q 1459 4608 1779 4608 
Q 2099 4608 2368 4505 
Q 2637 4403 2835 4217 
Q 3034 4032 3142 3776 
Q 3251 3520 3251 3206 
Q 3251 2829 3139 2547 
Q 3027 2266 2861 1990 
L 1638 0 
L 1094 0 
L 2330 1946 
z
" transform="scale(0.015625)"/>
        <path id="Avenir-Book-45" d="M 1075 422 
L 3501 422 
L 3501 0 
L 614 0 
L 614 4531 
L 3424 4531 
L 3424 4109 
L 1075 4109 
L 1075 2566 
L 3270 2566 
L 3270 2144 
L 1075 2144 
L 1075 422 
z
" transform="scale(0.015625)"/>
       </defs>
       <use xlink:href="#Avenir-Book-53"/>
       <use xlink:href="#Avenir-Book-54" x="55.599991"/>
       <use xlink:href="#Avenir-Book-50" x="112.999985"/>
       <use xlink:href="#Avenir-Book-31" x="170.399979"/>
       <use xlink:href="#Avenir-Book-39" x="225.999969"/>
       <use xlink:href="#Avenir-Book-5f" x="281.59996"/>
       <use xlink:href="#Avenir-Book-45" x="331.599945"/>
       <use xlink:href="#Avenir-Book-45" x="390.899933"/>
       <use xlink:href="#Avenir-Book-5f" x="450.199921"/>
       <use xlink:href="#Avenir-Book-39" x="500.199905"/>
      </g>
     </g>
    </g>
    <g id="xtick_6">
     <g id="text_6">
      <!-- 2018 -->
      <g style="fill: #262626" transform="translate(1043.20037 696.653059) rotate(-45) scale(0.22 -0.22)">
       <defs>
        <path id="Avenir-Book-32" d="M 3187 0 
L 307 0 
L 307 531 
L 2112 2368 
Q 2214 2470 2316 2585 
Q 2419 2701 2502 2829 
Q 2586 2957 2637 3097 
Q 2688 3238 2688 3392 
Q 2688 3578 2621 3725 
Q 2554 3872 2432 3974 
Q 2310 4077 2150 4131 
Q 1990 4186 1811 4186 
Q 1466 4186 1222 3994 
Q 979 3802 909 3475 
L 422 3526 
Q 518 4032 886 4320 
Q 1254 4608 1779 4608 
Q 2054 4608 2300 4534 
Q 2547 4461 2736 4313 
Q 2925 4166 3037 3945 
Q 3149 3725 3149 3430 
Q 3149 3168 3069 2950 
Q 2989 2733 2861 2541 
Q 2733 2349 2569 2176 
Q 2406 2003 2234 1837 
L 806 422 
L 3187 422 
L 3187 0 
z
" transform="scale(0.015625)"/>
        <path id="Avenir-Book-30" d="M 1779 4186 
Q 1408 4186 1193 3987 
Q 979 3789 870 3494 
Q 762 3200 733 2867 
Q 704 2534 704 2266 
Q 704 1997 733 1664 
Q 762 1331 870 1036 
Q 979 742 1193 544 
Q 1408 346 1779 346 
Q 2150 346 2364 544 
Q 2579 742 2688 1036 
Q 2797 1331 2825 1664 
Q 2854 1997 2854 2266 
Q 2854 2534 2825 2867 
Q 2797 3200 2688 3494 
Q 2579 3789 2364 3987 
Q 2150 4186 1779 4186 
z
M 1779 4608 
Q 2266 4608 2566 4384 
Q 2867 4160 3033 3814 
Q 3200 3469 3257 3056 
Q 3315 2643 3315 2266 
Q 3315 1888 3257 1475 
Q 3200 1062 3033 716 
Q 2867 371 2566 147 
Q 2266 -77 1779 -77 
Q 1293 -77 992 147 
Q 691 371 524 716 
Q 358 1062 300 1475 
Q 243 1888 243 2266 
Q 243 2643 300 3056 
Q 358 3469 524 3814 
Q 691 4160 992 4384 
Q 1293 4608 1779 4608 
z
" transform="scale(0.015625)"/>
        <path id="Avenir-Book-38" d="M 2752 1274 
Q 2752 1472 2681 1641 
Q 2611 1811 2486 1936 
Q 2362 2061 2179 2131 
Q 1997 2202 1779 2202 
Q 1555 2202 1376 2131 
Q 1197 2061 1072 1936 
Q 947 1811 876 1641 
Q 806 1472 806 1274 
Q 806 1075 876 905 
Q 947 736 1072 611 
Q 1197 486 1376 416 
Q 1555 346 1779 346 
Q 1997 346 2179 416 
Q 2362 486 2486 611 
Q 2611 736 2681 905 
Q 2752 1075 2752 1274 
z
M 2586 3386 
Q 2586 3558 2525 3705 
Q 2464 3853 2355 3958 
Q 2246 4064 2099 4125 
Q 1952 4186 1779 4186 
Q 1606 4186 1459 4125 
Q 1312 4064 1203 3958 
Q 1094 3853 1033 3705 
Q 973 3558 973 3386 
Q 973 3213 1033 3065 
Q 1094 2918 1203 2812 
Q 1312 2707 1459 2646 
Q 1606 2586 1779 2586 
Q 1952 2586 2099 2646 
Q 2246 2707 2355 2812 
Q 2464 2918 2525 3065 
Q 2586 3213 2586 3386 
z
M 1190 2413 
Q 1043 2464 918 2563 
Q 794 2662 704 2796 
Q 614 2931 563 3091 
Q 512 3251 512 3424 
Q 512 3693 614 3913 
Q 717 4134 889 4288 
Q 1062 4442 1292 4525 
Q 1523 4608 1779 4608 
Q 2035 4608 2265 4525 
Q 2496 4442 2669 4288 
Q 2842 4134 2944 3913 
Q 3046 3693 3046 3424 
Q 3046 3251 2995 3091 
Q 2944 2931 2854 2796 
Q 2765 2662 2640 2563 
Q 2515 2464 2368 2413 
L 2368 2400 
Q 2752 2298 2982 1978 
Q 3213 1658 3213 1210 
Q 3213 915 3094 678 
Q 2976 442 2781 272 
Q 2586 102 2326 12 
Q 2067 -77 1779 -77 
Q 1491 -77 1232 12 
Q 973 102 777 272 
Q 582 442 464 678 
Q 346 915 346 1210 
Q 346 1658 576 1978 
Q 806 2298 1190 2400 
L 1190 2413 
z
" transform="scale(0.015625)"/>
       </defs>
       <use xlink:href="#Avenir-Book-32"/>
       <use xlink:href="#Avenir-Book-30" x="55.599991"/>
       <use xlink:href="#Avenir-Book-31" x="111.199982"/>
       <use xlink:href="#Avenir-Book-38" x="166.799973"/>
      </g>
     </g>
    </g>
    <g id="xtick_7">
     <g id="text_7">
      <!-- GWRPM25 -->
      <g style="fill: #262626" transform="translate(1181.883091 738.144759) rotate(-45) scale(0.22 -0.22)">
       <defs>
        <path id="Avenir-Book-47" d="M 3962 3699 
Q 3731 3942 3411 4083 
Q 3091 4224 2669 4224 
Q 2234 4224 1888 4064 
Q 1542 3904 1302 3635 
Q 1062 3366 934 3011 
Q 806 2656 806 2266 
Q 806 1875 934 1520 
Q 1062 1165 1302 896 
Q 1542 627 1888 467 
Q 2234 307 2669 307 
Q 3021 307 3344 393 
Q 3667 480 3923 627 
L 3923 2144 
L 2842 2144 
L 2842 2566 
L 4384 2566 
L 4384 346 
Q 4000 122 3542 3 
Q 3085 -115 2669 -115 
Q 2163 -115 1731 64 
Q 1299 243 982 560 
Q 666 877 486 1312 
Q 307 1747 307 2266 
Q 307 2784 486 3219 
Q 666 3654 982 3971 
Q 1299 4288 1731 4467 
Q 2163 4646 2669 4646 
Q 3213 4646 3606 4496 
Q 4000 4346 4307 4038 
L 3962 3699 
z
" transform="scale(0.015625)"/>
        <path id="Avenir-Book-57" d="M 1600 653 
L 1613 653 
L 2752 4531 
L 3302 4531 
L 4442 653 
L 4454 653 
L 5530 4531 
L 6042 4531 
L 4704 0 
L 4166 0 
L 3027 3878 
L 3014 3878 
L 1875 0 
L 1338 0 
L 0 4531 
L 512 4531 
L 1600 653 
z
" transform="scale(0.015625)"/>
        <path id="Avenir-Book-4d" d="M 2848 845 
L 4378 4531 
L 5082 4531 
L 5082 0 
L 4621 0 
L 4621 3917 
L 4608 3917 
L 2970 0 
L 2726 0 
L 1088 3917 
L 1075 3917 
L 1075 0 
L 614 0 
L 614 4531 
L 1318 4531 
L 2848 845 
z
" transform="scale(0.015625)"/>
       </defs>
       <use xlink:href="#Avenir-Book-47"/>
       <use xlink:href="#Avenir-Book-57" x="77.799988"/>
       <use xlink:href="#Avenir-Book-52" x="172.199982"/>
       <use xlink:href="#Avenir-Book-50" x="231.499969"/>
       <use xlink:href="#Avenir-Book-4d" x="288.899963"/>
       <use xlink:href="#Avenir-Book-32" x="377.899948"/>
       <use xlink:href="#Avenir-Book-35" x="433.499939"/>
      </g>
     </g>
    </g>
    <g id="text_8">
     <!-- Variable -->
     <g style="fill: #262626" transform="translate(695.124375 775.141142) scale(0.24 -0.24)">
      <defs>
       <path id="Avenir-Book-56" d="M 1933 691 
L 1946 691 
L 3430 4531 
L 3930 4531 
L 2163 0 
L 1702 0 
L -19 4531 
L 493 4531 
L 1933 691 
z
" transform="scale(0.015625)"/>
       <path id="Avenir-Book-61" d="M 2163 1491 
Q 2003 1491 1763 1475 
Q 1523 1459 1302 1398 
Q 1082 1338 925 1210 
Q 768 1082 768 858 
Q 768 710 829 604 
Q 890 499 992 432 
Q 1094 365 1219 336 
Q 1344 307 1472 307 
Q 1702 307 1872 384 
Q 2042 461 2157 592 
Q 2272 723 2326 899 
Q 2381 1075 2381 1274 
L 2381 1491 
L 2163 1491 
z
M 2381 1837 
L 2381 1914 
Q 2381 2688 1613 2688 
Q 1088 2688 698 2336 
L 442 2637 
Q 864 3072 1709 3072 
Q 1926 3072 2128 3008 
Q 2330 2944 2477 2813 
Q 2624 2682 2713 2483 
Q 2803 2285 2803 2010 
L 2803 672 
Q 2803 499 2819 310 
Q 2835 122 2854 0 
L 2445 0 
Q 2426 109 2416 237 
Q 2406 365 2406 486 
L 2394 486 
Q 2208 186 1955 54 
Q 1702 -77 1338 -77 
Q 1139 -77 953 -22 
Q 768 32 624 144 
Q 480 256 393 419 
Q 307 582 307 800 
Q 307 1165 496 1373 
Q 685 1581 969 1683 
Q 1254 1786 1577 1811 
Q 1901 1837 2170 1837 
L 2381 1837 
z
" transform="scale(0.015625)"/>
       <path id="Avenir-Book-72" d="M 506 2061 
Q 506 2259 496 2464 
Q 486 2669 480 2995 
L 896 2995 
L 896 2438 
L 909 2438 
Q 954 2560 1037 2672 
Q 1120 2784 1238 2873 
Q 1357 2963 1513 3017 
Q 1670 3072 1869 3072 
Q 2048 3072 2182 3034 
L 2099 2618 
Q 2016 2650 1856 2650 
Q 1613 2650 1440 2557 
Q 1267 2464 1152 2320 
Q 1037 2176 982 2009 
Q 928 1843 928 1690 
L 928 0 
L 506 0 
L 506 2061 
z
" transform="scale(0.015625)"/>
       <path id="Avenir-Book-69" d="M 1075 4147 
Q 1075 4013 979 3926 
Q 883 3840 768 3840 
Q 653 3840 557 3926 
Q 461 4013 461 4147 
Q 461 4282 557 4368 
Q 653 4454 768 4454 
Q 883 4454 979 4368 
Q 1075 4282 1075 4147 
z
M 979 0 
L 557 0 
L 557 2995 
L 979 2995 
L 979 0 
z
" transform="scale(0.015625)"/>
       <path id="Avenir-Book-62" d="M 3194 1498 
Q 3194 1747 3114 1964 
Q 3034 2182 2886 2342 
Q 2739 2502 2531 2595 
Q 2323 2688 2061 2688 
Q 1798 2688 1580 2595 
Q 1363 2502 1203 2342 
Q 1043 2182 953 1964 
Q 864 1747 864 1498 
Q 864 1248 953 1030 
Q 1043 813 1203 653 
Q 1363 493 1580 400 
Q 1798 307 2061 307 
Q 2323 307 2531 400 
Q 2739 493 2886 653 
Q 3034 813 3114 1030 
Q 3194 1248 3194 1498 
z
M 461 4838 
L 883 4838 
L 883 2496 
L 896 2496 
Q 998 2650 1139 2758 
Q 1280 2867 1433 2937 
Q 1587 3008 1750 3040 
Q 1914 3072 2061 3072 
Q 2413 3072 2704 2953 
Q 2995 2835 3206 2624 
Q 3418 2413 3536 2125 
Q 3654 1837 3654 1498 
Q 3654 1158 3536 870 
Q 3418 582 3206 371 
Q 2995 160 2704 41 
Q 2413 -77 2061 -77 
Q 1914 -77 1750 -45 
Q 1587 -13 1433 57 
Q 1280 128 1139 237 
Q 998 346 896 499 
L 883 499 
L 883 0 
L 461 0 
L 461 4838 
z
" transform="scale(0.015625)"/>
       <path id="Avenir-Book-6c" d="M 979 0 
L 557 0 
L 557 4838 
L 979 4838 
L 979 0 
z
" transform="scale(0.015625)"/>
       <path id="Avenir-Book-65" d="M 2790 1728 
Q 2790 2157 2534 2422 
Q 2278 2688 1818 2688 
Q 1613 2688 1421 2608 
Q 1229 2528 1085 2393 
Q 941 2259 854 2086 
Q 768 1914 768 1728 
L 2790 1728 
z
M 755 1382 
Q 774 1158 864 960 
Q 954 762 1101 618 
Q 1248 474 1440 390 
Q 1632 307 1856 307 
Q 2195 307 2441 464 
Q 2688 621 2816 826 
L 3142 557 
Q 2874 218 2550 70 
Q 2227 -77 1856 -77 
Q 1523 -77 1238 41 
Q 954 160 749 371 
Q 544 582 425 870 
Q 307 1158 307 1498 
Q 307 1837 422 2125 
Q 538 2413 742 2624 
Q 947 2835 1222 2953 
Q 1498 3072 1818 3072 
Q 2157 3072 2425 2950 
Q 2694 2829 2876 2627 
Q 3059 2426 3155 2154 
Q 3251 1882 3251 1574 
L 3251 1382 
L 755 1382 
z
" transform="scale(0.015625)"/>
      </defs>
      <use xlink:href="#Avenir-Book-56"/>
      <use xlink:href="#Avenir-Book-61" x="55.599991"/>
      <use xlink:href="#Avenir-Book-72" x="107.499985"/>
      <use xlink:href="#Avenir-Book-69" x="140.699982"/>
      <use xlink:href="#Avenir-Book-61" x="164.699966"/>
      <use xlink:href="#Avenir-Book-62" x="216.59996"/>
      <use xlink:href="#Avenir-Book-6c" x="277.699951"/>
      <use xlink:href="#Avenir-Book-65" x="301.699936"/>
     </g>
    </g>
   </g>
   <g id="matplotlib.axis_2">
    <g id="ytick_1">
     <g id="line2d_1">
      <path d="M 180 619.512854 
L 1296 619.512854 
" clip-path="url(#p693990c593)" style="fill: none; stroke: #ffffff; stroke-linecap: round"/>
     </g>
     <g id="text_9">
      <!-- −0.6 -->
      <g style="fill: #262626" transform="translate(125.272813 627.828166) scale(0.22 -0.22)">
       <defs>
        <path id="Avenir-Book-2212" d="M 3763 1747 
L 499 1747 
L 499 2131 
L 3763 2131 
L 3763 1747 
z
" transform="scale(0.015625)"/>
        <path id="Avenir-Book-2e" d="M 1235 307 
Q 1235 173 1139 67 
Q 1043 -38 890 -38 
Q 736 -38 640 67 
Q 544 173 544 307 
Q 544 442 640 547 
Q 736 653 890 653 
Q 1043 653 1139 547 
Q 1235 442 1235 307 
z
" transform="scale(0.015625)"/>
        <path id="Avenir-Book-36" d="M 768 1325 
Q 768 1107 841 928 
Q 915 749 1049 617 
Q 1184 486 1369 416 
Q 1555 346 1779 346 
Q 2003 346 2188 416 
Q 2374 486 2508 617 
Q 2643 749 2716 928 
Q 2790 1107 2790 1325 
Q 2790 1542 2716 1721 
Q 2643 1901 2508 2029 
Q 2374 2157 2188 2230 
Q 2003 2304 1779 2304 
Q 1555 2304 1369 2230 
Q 1184 2157 1049 2029 
Q 915 1901 841 1721 
Q 768 1542 768 1325 
z
M 1229 2586 
L 1242 2573 
Q 1350 2650 1532 2688 
Q 1715 2726 1869 2726 
Q 2163 2726 2416 2620 
Q 2669 2515 2854 2329 
Q 3040 2144 3145 1888 
Q 3251 1632 3251 1325 
Q 3251 1011 3142 755 
Q 3034 499 2835 313 
Q 2637 128 2368 25 
Q 2099 -77 1779 -77 
Q 1459 -77 1190 25 
Q 922 128 723 313 
Q 525 499 416 755 
Q 307 1011 307 1325 
Q 307 1702 419 1984 
Q 531 2266 698 2541 
L 1920 4531 
L 2464 4531 
L 1229 2586 
z
" transform="scale(0.015625)"/>
       </defs>
       <use xlink:href="#Avenir-Book-2212"/>
       <use xlink:href="#Avenir-Book-30" x="66.599991"/>
       <use xlink:href="#Avenir-Book-2e" x="122.199982"/>
       <use xlink:href="#Avenir-Book-36" x="149.999969"/>
      </g>
     </g>
    </g>
    <g id="ytick_2">
     <g id="line2d_2">
      <path d="M 180 556.023747 
L 1296 556.023747 
" clip-path="url(#p693990c593)" style="fill: none; stroke: #ffffff; stroke-linecap: round"/>
     </g>
     <g id="text_10">
      <!-- −0.4 -->
      <g style="fill: #262626" transform="translate(125.272813 564.33906) scale(0.22 -0.22)">
       <use xlink:href="#Avenir-Book-2212"/>
       <use xlink:href="#Avenir-Book-30" x="66.599991"/>
       <use xlink:href="#Avenir-Book-2e" x="122.199982"/>
       <use xlink:href="#Avenir-Book-34" x="149.999969"/>
      </g>
     </g>
    </g>
    <g id="ytick_3">
     <g id="line2d_3">
      <path d="M 180 492.53464 
L 1296 492.53464 
" clip-path="url(#p693990c593)" style="fill: none; stroke: #ffffff; stroke-linecap: round"/>
     </g>
     <g id="text_11">
      <!-- −0.2 -->
      <g style="fill: #262626" transform="translate(125.272813 500.849953) scale(0.22 -0.22)">
       <use xlink:href="#Avenir-Book-2212"/>
       <use xlink:href="#Avenir-Book-30" x="66.599991"/>
       <use xlink:href="#Avenir-Book-2e" x="122.199982"/>
       <use xlink:href="#Avenir-Book-32" x="149.999969"/>
      </g>
     </g>
    </g>
    <g id="ytick_4">
     <g id="line2d_4">
      <path d="M 180 429.045534 
L 1296 429.045534 
" clip-path="url(#p693990c593)" style="fill: none; stroke: #ffffff; stroke-linecap: round"/>
     </g>
     <g id="text_12">
      <!-- 0.0 -->
      <g style="fill: #262626" transform="translate(139.923438 437.360846) scale(0.22 -0.22)">
       <use xlink:href="#Avenir-Book-30"/>
       <use xlink:href="#Avenir-Book-2e" x="55.599991"/>
       <use xlink:href="#Avenir-Book-30" x="83.399979"/>
      </g>
     </g>
    </g>
    <g id="ytick_5">
     <g id="line2d_5">
      <path d="M 180 365.556427 
L 1296 365.556427 
" clip-path="url(#p693990c593)" style="fill: none; stroke: #ffffff; stroke-linecap: round"/>
     </g>
     <g id="text_13">
      <!-- 0.2 -->
      <g style="fill: #262626" transform="translate(139.923438 373.871739) scale(0.22 -0.22)">
       <use xlink:href="#Avenir-Book-30"/>
       <use xlink:href="#Avenir-Book-2e" x="55.599991"/>
       <use xlink:href="#Avenir-Book-32" x="83.399979"/>
      </g>
     </g>
    </g>
    <g id="ytick_6">
     <g id="line2d_6">
      <path d="M 180 302.06732 
L 1296 302.06732 
" clip-path="url(#p693990c593)" style="fill: none; stroke: #ffffff; stroke-linecap: round"/>
     </g>
     <g id="text_14">
      <!-- 0.4 -->
      <g style="fill: #262626" transform="translate(139.923438 310.382633) scale(0.22 -0.22)">
       <use xlink:href="#Avenir-Book-30"/>
       <use xlink:href="#Avenir-Book-2e" x="55.599991"/>
       <use xlink:href="#Avenir-Book-34" x="83.399979"/>
      </g>
     </g>
    </g>
    <g id="ytick_7">
     <g id="line2d_7">
      <path d="M 180 238.578213 
L 1296 238.578213 
" clip-path="url(#p693990c593)" style="fill: none; stroke: #ffffff; stroke-linecap: round"/>
     </g>
     <g id="text_15">
      <!-- 0.6 -->
      <g style="fill: #262626" transform="translate(139.923438 246.893526) scale(0.22 -0.22)">
       <use xlink:href="#Avenir-Book-30"/>
       <use xlink:href="#Avenir-Book-2e" x="55.599991"/>
       <use xlink:href="#Avenir-Book-36" x="83.399979"/>
      </g>
     </g>
    </g>
    <g id="ytick_8">
     <g id="line2d_8">
      <path d="M 180 175.089107 
L 1296 175.089107 
" clip-path="url(#p693990c593)" style="fill: none; stroke: #ffffff; stroke-linecap: round"/>
     </g>
     <g id="text_16">
      <!-- 0.8 -->
      <g style="fill: #262626" transform="translate(139.923438 183.404419) scale(0.22 -0.22)">
       <use xlink:href="#Avenir-Book-30"/>
       <use xlink:href="#Avenir-Book-2e" x="55.599991"/>
       <use xlink:href="#Avenir-Book-38" x="83.399979"/>
      </g>
     </g>
    </g>
    <g id="ytick_9">
     <g id="line2d_9">
      <path d="M 180 111.6 
L 1296 111.6 
" clip-path="url(#p693990c593)" style="fill: none; stroke: #ffffff; stroke-linecap: round"/>
     </g>
     <g id="text_17">
      <!-- 1.0 -->
      <g style="fill: #262626" transform="translate(139.923438 119.915312) scale(0.22 -0.22)">
       <use xlink:href="#Avenir-Book-31"/>
       <use xlink:href="#Avenir-Book-2e" x="55.599991"/>
       <use xlink:href="#Avenir-Book-30" x="83.399979"/>
      </g>
     </g>
    </g>
    <g id="text_18">
     <!-- Correlation -->
     <g style="fill: #262626" transform="translate(114.361562 423.354375) rotate(-90) scale(0.24 -0.24)">
      <defs>
       <path id="Avenir-Book-43" d="M 4346 717 
Q 4230 544 4060 390 
Q 3891 237 3673 125 
Q 3456 13 3203 -51 
Q 2950 -115 2669 -115 
Q 2163 -115 1731 64 
Q 1299 243 982 560 
Q 666 877 486 1312 
Q 307 1747 307 2266 
Q 307 2784 486 3219 
Q 666 3654 982 3971 
Q 1299 4288 1731 4467 
Q 2163 4646 2669 4646 
Q 3091 4646 3513 4480 
Q 3936 4314 4237 3930 
L 3834 3629 
Q 3763 3738 3641 3846 
Q 3520 3955 3363 4038 
Q 3206 4122 3027 4173 
Q 2848 4224 2669 4224 
Q 2234 4224 1888 4064 
Q 1542 3904 1302 3635 
Q 1062 3366 934 3011 
Q 806 2656 806 2266 
Q 806 1875 934 1520 
Q 1062 1165 1302 896 
Q 1542 627 1888 467 
Q 2234 307 2669 307 
Q 2848 307 3024 339 
Q 3200 371 3369 448 
Q 3539 525 3689 656 
Q 3840 787 3968 986 
L 4346 717 
z
" transform="scale(0.015625)"/>
       <path id="Avenir-Book-6f" d="M 3027 1498 
Q 3027 1747 2947 1964 
Q 2867 2182 2720 2342 
Q 2573 2502 2365 2595 
Q 2157 2688 1894 2688 
Q 1632 2688 1424 2595 
Q 1216 2502 1072 2342 
Q 928 2182 848 1964 
Q 768 1747 768 1498 
Q 768 1248 848 1030 
Q 928 813 1072 653 
Q 1216 493 1424 400 
Q 1632 307 1894 307 
Q 2157 307 2365 400 
Q 2573 493 2720 653 
Q 2867 813 2947 1030 
Q 3027 1248 3027 1498 
z
M 3488 1498 
Q 3488 1158 3369 870 
Q 3251 582 3040 371 
Q 2829 160 2537 41 
Q 2246 -77 1894 -77 
Q 1549 -77 1257 41 
Q 966 160 755 371 
Q 544 582 425 870 
Q 307 1158 307 1498 
Q 307 1837 425 2125 
Q 544 2413 755 2624 
Q 966 2835 1257 2953 
Q 1549 3072 1894 3072 
Q 2246 3072 2537 2953 
Q 2829 2835 3040 2624 
Q 3251 2413 3369 2125 
Q 3488 1837 3488 1498 
z
" transform="scale(0.015625)"/>
       <path id="Avenir-Book-74" d="M 2010 2611 
L 1146 2611 
L 1146 845 
Q 1146 678 1178 572 
Q 1210 467 1267 409 
Q 1325 352 1405 329 
Q 1485 307 1581 307 
Q 1690 307 1805 339 
Q 1920 371 2016 422 
L 2035 32 
Q 1798 -77 1466 -77 
Q 1344 -77 1213 -45 
Q 1082 -13 973 76 
Q 864 166 793 320 
Q 723 474 723 723 
L 723 2611 
L 90 2611 
L 90 2995 
L 723 2995 
L 723 3840 
L 1146 3840 
L 1146 2995 
L 2010 2995 
L 2010 2611 
z
" transform="scale(0.015625)"/>
       <path id="Avenir-Book-6e" d="M 864 2995 
Q 877 2874 880 2755 
Q 883 2637 883 2515 
L 896 2515 
Q 966 2637 1075 2739 
Q 1184 2842 1318 2915 
Q 1453 2989 1603 3030 
Q 1754 3072 1901 3072 
Q 2477 3072 2752 2768 
Q 3027 2464 3027 1901 
L 3027 0 
L 2605 0 
L 2605 1658 
Q 2605 2157 2432 2422 
Q 2259 2688 1792 2688 
Q 1760 2688 1613 2662 
Q 1466 2637 1302 2521 
Q 1139 2406 1011 2176 
Q 883 1946 883 1536 
L 883 0 
L 461 0 
L 461 2336 
Q 461 2458 451 2643 
Q 442 2829 429 2995 
L 864 2995 
z
" transform="scale(0.015625)"/>
      </defs>
      <use xlink:href="#Avenir-Book-43"/>
      <use xlink:href="#Avenir-Book-6f" x="70.399994"/>
      <use xlink:href="#Avenir-Book-72" x="129.699982"/>
      <use xlink:href="#Avenir-Book-72" x="162.899979"/>
      <use xlink:href="#Avenir-Book-65" x="194.349976"/>
      <use xlink:href="#Avenir-Book-6c" x="249.949966"/>
      <use xlink:href="#Avenir-Book-61" x="273.949951"/>
      <use xlink:href="#Avenir-Book-74" x="325.849945"/>
      <use xlink:href="#Avenir-Book-69" x="359.049942"/>
      <use xlink:href="#Avenir-Book-6f" x="383.049927"/>
      <use xlink:href="#Avenir-Book-6e" x="442.349915"/>
     </g>
    </g>
   </g>
   <g id="patch_3">
    <path d="M 195.942857 429.045534 
L 323.485714 429.045534 
L 323.485714 615.6 
L 195.942857 615.6 
z
" clip-path="url(#p693990c593)" style="fill: #5875a4; stroke: #ffffff; stroke-linejoin: miter"/>
   </g>
   <g id="patch_4">
    <path d="M 355.371429 429.045534 
L 482.914286 429.045534 
L 482.914286 613.079388 
L 355.371429 613.079388 
z
" clip-path="url(#p693990c593)" style="fill: #cc8963; stroke: #ffffff; stroke-linejoin: miter"/>
   </g>
   <g id="patch_5">
    <path d="M 514.8 429.045534 
L 642.342857 429.045534 
L 642.342857 585.218519 
L 514.8 585.218519 
z
" clip-path="url(#p693990c593)" style="fill: #5f9e6e; stroke: #ffffff; stroke-linejoin: miter"/>
   </g>
   <g id="patch_6">
    <path d="M 674.228571 429.045534 
L 801.771429 429.045534 
L 801.771429 612.459512 
L 674.228571 612.459512 
z
" clip-path="url(#p693990c593)" style="fill: #b55d60; stroke: #ffffff; stroke-linejoin: miter"/>
   </g>
   <g id="patch_7">
    <path d="M 833.657143 429.045534 
L 961.2 429.045534 
L 961.2 563.78846 
L 833.657143 563.78846 
z
" clip-path="url(#p693990c593)" style="fill: #857aab; stroke: #ffffff; stroke-linejoin: miter"/>
   </g>
   <g id="patch_8">
    <path d="M 993.085714 429.045534 
L 1120.628571 429.045534 
L 1120.628571 456.838028 
L 993.085714 456.838028 
z
" clip-path="url(#p693990c593)" style="fill: #8d7866; stroke: #ffffff; stroke-linejoin: miter"/>
   </g>
   <g id="patch_9">
    <path d="M 1152.514286 429.045534 
L 1280.057143 429.045534 
L 1280.057143 111.6 
L 1152.514286 111.6 
z
" clip-path="url(#p693990c593)" style="fill: #d095bf; stroke: #ffffff; stroke-linejoin: miter"/>
   </g>
   <g id="line2d_10">
    <path clip-path="url(#p693990c593)" style="fill: none; stroke: #424242; stroke-width: 2.7; stroke-linecap: round"/>
   </g>
   <g id="line2d_11">
    <path clip-path="url(#p693990c593)" style="fill: none; stroke: #424242; stroke-width: 2.7; stroke-linecap: round"/>
   </g>
   <g id="line2d_12">
    <path clip-path="url(#p693990c593)" style="fill: none; stroke: #424242; stroke-width: 2.7; stroke-linecap: round"/>
   </g>
   <g id="line2d_13">
    <path clip-path="url(#p693990c593)" style="fill: none; stroke: #424242; stroke-width: 2.7; stroke-linecap: round"/>
   </g>
   <g id="line2d_14">
    <path clip-path="url(#p693990c593)" style="fill: none; stroke: #424242; stroke-width: 2.7; stroke-linecap: round"/>
   </g>
   <g id="line2d_15">
    <path clip-path="url(#p693990c593)" style="fill: none; stroke: #424242; stroke-width: 2.7; stroke-linecap: round"/>
   </g>
   <g id="line2d_16">
    <path clip-path="url(#p693990c593)" style="fill: none; stroke: #424242; stroke-width: 2.7; stroke-linecap: round"/>
   </g>
   <g id="patch_10">
    <path d="M 180 640.8 
L 180 86.4 
" style="fill: none; stroke: #ffffff; stroke-width: 1.25; stroke-linejoin: miter; stroke-linecap: square"/>
   </g>
   <g id="patch_11">
    <path d="M 1296 640.8 
L 1296 86.4 
" style="fill: none; stroke: #ffffff; stroke-width: 1.25; stroke-linejoin: miter; stroke-linecap: square"/>
   </g>
   <g id="patch_12">
    <path d="M 180 640.8 
L 1296 640.8 
" style="fill: none; stroke: #ffffff; stroke-width: 1.25; stroke-linejoin: miter; stroke-linecap: square"/>
   </g>
   <g id="patch_13">
    <path d="M 180 86.4 
L 1296 86.4 
" style="fill: none; stroke: #ffffff; stroke-width: 1.25; stroke-linejoin: miter; stroke-linecap: square"/>
   </g>
   <g id="text_19">
    <!-- Correlation of GWRPM25 with Other Variables -->
    <g style="fill: #262626" transform="translate(490.7025 80.4) scale(0.24 -0.24)">
     <defs>
      <path id="Avenir-Book-20" transform="scale(0.015625)"/>
      <path id="Avenir-Book-66" d="M 1856 2611 
L 1146 2611 
L 1146 0 
L 723 0 
L 723 2611 
L 90 2611 
L 90 2995 
L 723 2995 
L 723 3814 
Q 723 4410 998 4662 
Q 1274 4915 1728 4915 
Q 1818 4915 1910 4902 
Q 2003 4890 2093 4870 
L 2016 4486 
Q 1939 4506 1856 4518 
Q 1773 4531 1690 4531 
Q 1517 4531 1408 4473 
Q 1299 4416 1241 4310 
Q 1184 4205 1165 4064 
Q 1146 3923 1146 3763 
L 1146 2995 
L 1856 2995 
L 1856 2611 
z
" transform="scale(0.015625)"/>
      <path id="Avenir-Book-77" d="M 589 2995 
L 1280 563 
L 1293 563 
L 2093 2995 
L 2528 2995 
L 3328 563 
L 3341 563 
L 4032 2995 
L 4531 2995 
L 3584 0 
L 3110 0 
L 2317 2458 
L 2304 2458 
L 1510 0 
L 1037 0 
L 90 2995 
L 589 2995 
z
" transform="scale(0.015625)"/>
      <path id="Avenir-Book-68" d="M 461 4838 
L 883 4838 
L 883 2515 
L 896 2515 
Q 966 2637 1075 2739 
Q 1184 2842 1318 2915 
Q 1453 2989 1603 3030 
Q 1754 3072 1901 3072 
Q 2477 3072 2752 2768 
Q 3027 2464 3027 1901 
L 3027 0 
L 2605 0 
L 2605 1658 
Q 2605 2157 2432 2422 
Q 2259 2688 1792 2688 
Q 1760 2688 1613 2662 
Q 1466 2637 1302 2521 
Q 1139 2406 1011 2176 
Q 883 1946 883 1536 
L 883 0 
L 461 0 
L 461 4838 
z
" transform="scale(0.015625)"/>
      <path id="Avenir-Book-4f" d="M 4531 2266 
Q 4531 2656 4403 3011 
Q 4275 3366 4035 3635 
Q 3795 3904 3449 4064 
Q 3104 4224 2669 4224 
Q 2234 4224 1888 4064 
Q 1542 3904 1302 3635 
Q 1062 3366 934 3011 
Q 806 2656 806 2266 
Q 806 1875 934 1520 
Q 1062 1165 1302 896 
Q 1542 627 1888 467 
Q 2234 307 2669 307 
Q 3104 307 3449 467 
Q 3795 627 4035 896 
Q 4275 1165 4403 1520 
Q 4531 1875 4531 2266 
z
M 5030 2266 
Q 5030 1747 4851 1312 
Q 4672 877 4355 560 
Q 4038 243 3606 64 
Q 3174 -115 2669 -115 
Q 2163 -115 1731 64 
Q 1299 243 982 560 
Q 666 877 486 1312 
Q 307 1747 307 2266 
Q 307 2784 486 3219 
Q 666 3654 982 3971 
Q 1299 4288 1731 4467 
Q 2163 4646 2669 4646 
Q 3174 4646 3606 4467 
Q 4038 4288 4355 3971 
Q 4672 3654 4851 3219 
Q 5030 2784 5030 2266 
z
" transform="scale(0.015625)"/>
      <path id="Avenir-Book-73" d="M 2048 2285 
Q 1952 2470 1792 2579 
Q 1632 2688 1402 2688 
Q 1293 2688 1181 2662 
Q 1069 2637 979 2582 
Q 890 2528 835 2445 
Q 781 2362 781 2240 
Q 781 2029 928 1933 
Q 1075 1837 1370 1766 
L 1798 1664 
Q 2112 1594 2320 1379 
Q 2528 1165 2528 845 
Q 2528 602 2429 426 
Q 2330 250 2166 138 
Q 2003 26 1792 -25 
Q 1581 -77 1363 -77 
Q 1018 -77 720 54 
Q 422 186 211 506 
L 576 755 
Q 704 550 899 428 
Q 1094 307 1363 307 
Q 1491 307 1619 336 
Q 1747 365 1846 425 
Q 1946 486 2006 582 
Q 2067 678 2067 806 
Q 2067 1030 1900 1129 
Q 1734 1229 1498 1286 
L 1088 1382 
Q 1011 1402 880 1446 
Q 749 1491 624 1580 
Q 499 1670 409 1814 
Q 320 1958 320 2170 
Q 320 2400 413 2573 
Q 506 2746 662 2854 
Q 819 2963 1017 3017 
Q 1216 3072 1427 3072 
Q 1741 3072 2009 2950 
Q 2278 2829 2426 2534 
L 2048 2285 
z
" transform="scale(0.015625)"/>
     </defs>
     <use xlink:href="#Avenir-Book-43"/>
     <use xlink:href="#Avenir-Book-6f" x="70.399994"/>
     <use xlink:href="#Avenir-Book-72" x="129.699982"/>
     <use xlink:href="#Avenir-Book-72" x="162.899979"/>
     <use xlink:href="#Avenir-Book-65" x="194.349976"/>
     <use xlink:href="#Avenir-Book-6c" x="249.949966"/>
     <use xlink:href="#Avenir-Book-61" x="273.949951"/>
     <use xlink:href="#Avenir-Book-74" x="325.849945"/>
     <use xlink:href="#Avenir-Book-69" x="359.049942"/>
     <use xlink:href="#Avenir-Book-6f" x="383.049927"/>
     <use xlink:href="#Avenir-Book-6e" x="442.349915"/>
     <use xlink:href="#Avenir-Book-20" x="497.949905"/>
     <use xlink:href="#Avenir-Book-6f" x="525.749893"/>
     <use xlink:href="#Avenir-Book-66" x="585.049881"/>
     <use xlink:href="#Avenir-Book-20" x="614.649872"/>
     <use xlink:href="#Avenir-Book-47" x="642.44986"/>
     <use xlink:href="#Avenir-Book-57" x="720.249847"/>
     <use xlink:href="#Avenir-Book-52" x="814.649841"/>
     <use xlink:href="#Avenir-Book-50" x="873.949829"/>
     <use xlink:href="#Avenir-Book-4d" x="931.349823"/>
     <use xlink:href="#Avenir-Book-32" x="1020.349808"/>
     <use xlink:href="#Avenir-Book-35" x="1075.949799"/>
     <use xlink:href="#Avenir-Book-20" x="1131.549789"/>
     <use xlink:href="#Avenir-Book-77" x="1159.349777"/>
     <use xlink:href="#Avenir-Book-69" x="1231.549759"/>
     <use xlink:href="#Avenir-Book-74" x="1255.549744"/>
     <use xlink:href="#Avenir-Book-68" x="1288.749741"/>
     <use xlink:href="#Avenir-Book-20" x="1344.349731"/>
     <use xlink:href="#Avenir-Book-4f" x="1372.149719"/>
     <use xlink:href="#Avenir-Book-74" x="1455.549713"/>
     <use xlink:href="#Avenir-Book-68" x="1488.74971"/>
     <use xlink:href="#Avenir-Book-65" x="1544.349701"/>
     <use xlink:href="#Avenir-Book-72" x="1599.949692"/>
     <use xlink:href="#Avenir-Book-20" x="1633.149689"/>
     <use xlink:href="#Avenir-Book-56" x="1660.949677"/>
     <use xlink:href="#Avenir-Book-61" x="1716.549667"/>
     <use xlink:href="#Avenir-Book-72" x="1768.449661"/>
     <use xlink:href="#Avenir-Book-69" x="1801.649658"/>
     <use xlink:href="#Avenir-Book-61" x="1825.649643"/>
     <use xlink:href="#Avenir-Book-62" x="1877.549637"/>
     <use xlink:href="#Avenir-Book-6c" x="1938.649628"/>
     <use xlink:href="#Avenir-Book-65" x="1962.649612"/>
     <use xlink:href="#Avenir-Book-73" x="2018.249603"/>
    </g>
   </g>
  </g>
 </g>
 <defs>
  <clipPath id="p693990c593">
   <rect x="180" y="86.4" width="1116" height="554.4"/>
  </clipPath>
 </defs>
</svg>
